<?xml version="1.0" encoding="UTF-8"?>
<svg version="1.1" xmlns="http://www.w3.org/2000/svg" width="1024" height="1024">
<path d="M0 0 C337.92 0 675.84 0 1024 0 C1024 337.92 1024 675.84 1024 1024 C686.08 1024 348.16 1024 0 1024 C0 686.08 0 348.16 0 0 Z " fill="#000C1B" transform="translate(0,0)"/>
<path d="M0 0 C10.23 0 20.46 0 31 0 C35.4375 8.4375 35.4375 8.4375 36.92504883 11.26660156 C39.0702963 15.34383824 41.21963516 19.41869606 43.38671875 23.484375 C47.61516662 31.41980486 51.74828934 39.39117416 55.73828125 47.44921875 C57.5294361 51.06557451 59.34617679 54.66851509 61.16796875 58.26953125 C61.71799561 59.35999756 62.26802246 60.45046387 62.8347168 61.57397461 C63.93350282 63.75205492 65.03516851 65.92868521 66.13989258 68.10375977 C66.64029053 69.09819092 67.14068848 70.09262207 67.65625 71.1171875 C68.10806641 72.01034668 68.55988281 72.90350586 69.02539062 73.82373047 C70 76 70 76 70 78 C70.66 78 71.32 78 72 78 C72.23460937 77.19304687 72.46921875 76.38609375 72.7109375 75.5546875 C74.30061103 71.1710423 76.41139394 67.22037887 78.625 63.125 C79.53772521 61.4134354 80.44916707 59.70118586 81.359375 57.98828125 C81.80990234 57.14088379 82.26042969 56.29348633 82.72460938 55.42041016 C84.48802148 52.07384286 86.19208394 48.70011887 87.875 45.3125 C88.34111694 44.37531128 88.34111694 44.37531128 88.81665039 43.41918945 C89.49114389 42.0609995 90.16502248 40.70250405 90.83837891 39.34375 C93.24052102 34.49705721 95.65042643 29.65425625 98.0625 24.8125 C98.78638916 23.35227417 98.78638916 23.35227417 99.52490234 21.86254883 C103.20310266 14.48071713 107.0843296 7.27195932 111 0 C121.56 0 132.12 0 143 0 C143 51.15 143 102.3 143 155 C133.43 155 123.86 155 114 155 C113.67 122.99 113.34 90.98 113 58 C105.64089694 72.4311546 105.64089694 72.4311546 98.28417969 86.86352539 C93.06623944 97.0943203 87.8208403 107.31024385 82.515625 117.49609375 C81.79400177 118.88369652 81.79400177 118.88369652 81.05780029 120.29933167 C78.12490691 125.91599794 75.10681266 131.47762627 72 137 C69.3835419 133.61549342 67.43311238 130.1099694 65.55859375 126.27734375 C65.23486282 125.62431778 64.9111319 124.97129181 64.57759094 124.29847717 C63.88604822 122.90301122 63.19621028 121.50669935 62.50793457 120.10961914 C60.70577315 116.45268445 58.89028506 112.80238851 57.07421875 109.15234375 C56.71768219 108.43533295 56.36114563 107.71832214 55.99380493 106.97958374 C53.31958553 101.61305122 50.56801573 96.29247303 47.75 91 C41.99212781 80.09034744 36.51676737 69.03353474 31 58 C30.67 90.01 30.34 122.02 30 155 C20.1 155 10.2 155 0 155 C0 103.85 0 52.7 0 0 Z " fill="#01D8D2" transform="translate(187,627)"/>
<path d="M0 0 C9.57 0 19.14 0 29 0 C30.85625 3.3 32.7125 6.6 34.625 10 C39.92028527 19.38985617 45.31582332 28.71660438 50.76831055 38.01586914 C54.72938018 44.78477175 58.60164039 51.59680544 62.4375 58.4375 C69.42154388 70.74272017 76.72037935 82.86729891 84 95 C84.33 63.65 84.66 32.3 85 0 C95.23 0 105.46 0 116 0 C116 51.15 116 102.3 116 155 C105.77 155 95.54 155 85 155 C81.720625 149.06 81.720625 149.06 78.375 143 C72.75459773 132.85519853 67.01272184 122.79477546 61.13891602 112.79418945 C56.63491492 105.11747864 52.2288781 97.38958075 47.87646484 89.62597656 C42.6738149 80.36242282 37.3255639 71.19870129 32 62 C31.67 92.69 31.34 123.38 31 155 C20.77 155 10.54 155 0 155 C0 103.85 0 52.7 0 0 Z " fill="#00D6D0" transform="translate(593,627)"/>
<path d="M0 0 C1.21606934 -0.01844971 2.43213867 -0.03689941 3.68505859 -0.0559082 C14.97024481 0.02214986 24.61238628 2.65062887 33 10.5 C33.33 11.16 33.66 11.82 34 12.5 C53.94080885 12.66363858 73.88148115 12.78701819 93.82282257 12.8626852 C103.08230557 12.8987552 112.34137099 12.94791718 121.60058594 13.02807617 C129.67246582 13.09792274 137.74404325 13.14302553 145.81621695 13.15861946 C150.08918807 13.16773283 154.36129405 13.18909657 158.63398743 13.2401104 C162.65941779 13.28778065 166.68363042 13.30225009 170.70931625 13.29175377 C172.18312585 13.29367266 173.656978 13.30750624 175.13054276 13.33443832 C184.64907123 13.61311835 184.64907123 13.61311835 192.65124512 9.09877014 C193.48087391 8.17632555 193.48087391 8.17632555 194.32726288 7.2352457 C199.62940717 1.73496536 207.88172204 0.53161695 215.1796875 0.33203125 C238.88262139 0.09702348 260.66178078 3.09057124 278.5625 19.984375 C314.59708553 57.17391519 324.59627568 130.99363601 333.43017578 180.38476562 C333.92577338 183.09420236 334.46122471 185.78899752 335.02734375 188.484375 C339.30824846 209.29270482 338.34164977 230.07533549 327 248.5 C318.77923209 259.83845536 307.73585513 266.79469676 294 269.5 C280.20977921 270.90945346 268.34125193 266.92501838 257.3984375 258.49609375 C247.64057965 250.05237465 240.25147258 239.75390739 233.25 229 C231.86557425 226.89778459 230.48014296 224.79623107 229.09375 222.6953125 C228.41054688 221.65793945 227.72734375 220.62056641 227.0234375 219.55175781 C223.46273479 214.18148949 219.81201822 208.87360793 216.16113281 203.56445312 C215.4239502 202.49227539 215.4239502 202.49227539 214.671875 201.3984375 C214.20813477 200.73183105 213.74439453 200.06522461 213.26660156 199.37841797 C212.12178227 197.68060771 211.07020757 195.92082872 210.03125 194.15625 C207.56101159 190.92593823 205.53456787 190.02364465 201.75 188.625 C200.67234375 188.21507812 199.5946875 187.80515625 198.484375 187.3828125 C197.66453125 187.09148437 196.8446875 186.80015625 196 186.5 C197.98 183.53 199.96 180.56 202 177.5 C214.60982458 180.65245615 222.31321479 192.03940111 229.01953125 202.35546875 C229.56300705 203.17896317 230.10648285 204.00245758 230.66642761 204.85090637 C232.38746746 207.45941788 234.10080541 210.07284837 235.8125 212.6875 C253.53731517 241.66542418 253.53731517 241.66542418 282 258.5 C291.12335839 259.94794873 299.95209197 257.58997473 307.76953125 252.8046875 C317.52401673 245.58022599 322.9777586 235.08440462 325.46484375 223.296875 C325.77250155 221.02105015 325.9169896 218.79541809 326 216.5 C326.03996094 215.47390625 326.07992188 214.4478125 326.12109375 213.390625 C326.42289271 197.69707882 323.41703238 182.66329035 320 167.4375 C319.80469696 166.55860107 319.60939392 165.67970215 319.40817261 164.77416992 C305.82909769 85.17425945 305.82909769 85.17425945 263.6875 21.6875 C247.42054402 11.96782506 225.7452898 9.00945818 207.0859375 11.9609375 C201.7138728 13.48811308 199.12008073 15.91738143 196 20.5 C195.67 21.16 195.34 21.82 195 22.5 C173.18200268 22.66346817 151.36410622 22.78693485 129.54562092 22.8626852 C119.41505281 22.89879123 109.28486502 22.94802244 99.15454102 23.02807617 C90.32568444 23.09781199 81.49710327 23.14299933 72.66797894 23.15861946 C67.99216097 23.16775146 63.31713092 23.18923495 58.64156532 23.2401104 C54.24107691 23.28760501 49.84170128 23.30228515 45.44098091 23.29175377 C43.82562462 23.29368046 42.21023136 23.30761801 40.59509659 23.33443832 C28.31998787 23.52828515 28.31998787 23.52828515 25.01558495 20.95411873 C23.69206238 19.06752014 23.69206238 19.06752014 22 15.5 C9.88341563 8.08168304 -9.40015392 10.38971137 -22.90625 12.75 C-38.63383007 16.56274668 -51.37187028 24.12263439 -59.8671875 38.015625 C-63.1859613 43.62391637 -65.80482896 49.42984455 -68.3125 55.4375 C-68.786875 56.57372803 -69.26125 57.70995605 -69.75 58.88061523 C-87.89489719 103.07839848 -120.82178624 187.08793557 -102.96875 234.22265625 C-98.50259542 243.98482522 -91.85328197 251.18284037 -82 255.5 C-81.29101562 255.81839844 -80.58203125 256.13679687 -79.8515625 256.46484375 C-71.52994784 259.72439318 -63.21027363 259.66718998 -54.875 256.5 C-39.06821331 249.09056874 -30.47560644 234.83256788 -21 220.8984375 C-17.6184166 215.92860368 -14.18956597 210.99233077 -10.75 206.0625 C-10.1837793 205.24644287 -9.61755859 204.43038574 -9.03417969 203.58959961 C5.87718869 182.2376504 5.87718869 182.2376504 18 177.5 C18.66 177.5 19.32 177.5 20 177.5 C22.17204 180.46187272 23.83561997 183.00685991 25 186.5 C24.35933594 186.6959375 23.71867188 186.891875 23.05859375 187.09375 C15.96086795 189.54780721 12.36014225 192.47760791 8 198.5 C7.58024902 199.07943359 7.16049805 199.65886719 6.72802734 200.25585938 C3.63616633 204.54467388 0.60573552 208.87468776 -2.41064453 213.21679688 C-5.46185925 217.60004727 -8.54793118 221.95876673 -11.6328125 226.31835938 C-13.987602 229.64658548 -16.33554194 232.97873671 -18.66015625 236.328125 C-29.1523978 251.3752314 -41.05535487 265.76741193 -60 269.5 C-75.20328585 270.37515568 -87.6538005 267.33037521 -99.375 257.125 C-111.34943137 245.66869306 -117.55972302 231.90444215 -118.10522461 215.29638672 C-118.21893721 206.41737688 -117.45280267 198.07623537 -115.875 189.3125 C-115.64981689 188.02005371 -115.42463379 186.72760742 -115.19262695 185.39599609 C-89.9236521 42.03337479 -89.9236521 42.03337479 -53.44140625 14.57421875 C-50.68574075 12.74883465 -47.89355324 11.09685718 -45 9.5 C-43.77216797 8.80583984 -43.77216797 8.80583984 -42.51953125 8.09765625 C-29.21936113 1.31353847 -14.69860369 0.13132069 0 0 Z " fill="#01D4D0" transform="translate(400,278.5)"/>
<path d="M0 0 C32.34 0 64.68 0 98 0 C98 10.56 98 21.12 98 32 C75.23 32 52.46 32 29 32 C29 41.57 29 51.14 29 61 C47.48 61 65.96 61 85 61 C85 71.56 85 82.12 85 93 C66.52 93 48.04 93 29 93 C29 102.9 29 112.8 29 123 C51.77 123 74.54 123 98 123 C98 133.56 98 144.12 98 155 C65.66 155 33.32 155 0 155 C0 103.85 0 52.7 0 0 Z " fill="#00D7D1" transform="translate(355,627)"/>
<path d="M0 0 C1.77932088 0.00747287 3.55865007 0.01316085 5.33798218 0.01715088 C9.99057274 0.03232496 14.64265309 0.07153441 19.29504395 0.1159668 C24.0546987 0.15709836 28.81443698 0.17519986 33.57421875 0.1953125 C42.89088369 0.23803799 52.20703808 0.30831906 61.5234375 0.390625 C61.5234375 11.280625 61.5234375 22.170625 61.5234375 33.390625 C25.8834375 33.885625 25.8834375 33.885625 -10.4765625 34.390625 C-10.4765625 40.660625 -10.4765625 46.930625 -10.4765625 53.390625 C-3.56414312 56.28899032 3.25322291 58.55991085 10.5 60.44921875 C12.57302433 61.00545827 14.64593776 61.56211127 16.71875 62.11914062 C19.94069623 62.97771998 23.16362013 63.8321117 26.38867188 64.67895508 C29.53319004 65.50737791 32.67294088 66.35222554 35.8125 67.19921875 C36.7679068 67.44522324 37.7233136 67.69122772 38.70767212 67.94468689 C46.37003681 70.02867911 53.09173105 73.11548508 58.3359375 79.265625 C58.87863281 79.88179687 59.42132812 80.49796875 59.98046875 81.1328125 C64.26325364 87.39977368 64.98196832 92.71250166 64.95703125 100.12890625 C64.9622731 101.04971481 64.96751495 101.97052338 64.97291565 102.91923523 C64.97931325 104.85980221 64.9780283 106.80040809 64.96948242 108.7409668 C64.96099225 111.68414715 64.98973348 114.62537127 65.02148438 117.56835938 C65.02309733 119.46354109 65.02251705 121.3587262 65.01953125 123.25390625 C65.03076523 124.12090652 65.04199921 124.9879068 65.05357361 125.88117981 C64.96297454 133.96997939 62.80166102 141.16879406 57.3359375 147.265625 C50.20231552 153.78427957 41.91442839 155.54893696 32.54199219 155.50415039 C31.7416153 155.50429642 30.9412384 155.50444244 30.11660767 155.5045929 C27.47614819 155.5038973 24.83575962 155.4961214 22.1953125 155.48828125 C20.36256957 155.48641582 18.52982613 155.48499251 16.69708252 155.48399353 C11.87693908 155.48017822 7.05682585 155.47035633 2.23669434 155.45928955 C-2.68334545 155.44905425 -7.60339013 155.44449137 -12.5234375 155.43945312 C-22.17449456 155.42873319 -31.82552129 155.41114435 -41.4765625 155.390625 C-41.4765625 144.830625 -41.4765625 134.270625 -41.4765625 123.390625 C-16.7265625 123.060625 8.0234375 122.730625 33.5234375 122.390625 C33.5234375 115.130625 33.5234375 107.870625 33.5234375 100.390625 C26.64464649 97.6391086 20.07253184 95.25840126 12.984375 93.296875 C11.00256941 92.73579984 9.02079964 92.17459815 7.0390625 91.61328125 C3.9613492 90.74847331 0.88292742 89.88629598 -2.19628906 89.02685547 C-5.20053644 88.18618236 -8.20189564 87.33574933 -11.203125 86.484375 C-12.11478424 86.23320923 -13.02644348 85.98204346 -13.96572876 85.7232666 C-20.92361269 83.74297994 -28.04000142 81.42989026 -33.2265625 76.140625 C-33.75765625 75.61984375 -34.28875 75.0990625 -34.8359375 74.5625 C-39.73897797 68.07180833 -41.08785433 62.38827375 -41.04296875 54.3359375 C-41.04916733 53.39434784 -41.05536591 52.45275818 -41.06175232 51.4826355 C-41.06882069 49.50096667 -41.06572893 47.51923808 -41.05297852 45.53759766 C-41.03913075 42.5304454 -41.07320708 39.52642064 -41.11132812 36.51953125 C-41.19015865 17.00791152 -41.19015865 17.00791152 -33.95458984 8.62792969 C-24.40399892 -0.61746791 -12.41126621 -0.15395087 0 0 Z " fill="#00D5CF" transform="translate(773.4765625,626.609375)"/>
<path d="M0 0 C31.68 0 63.36 0 96 0 C96 10.56 96 21.12 96 32 C74.22 32 52.44 32 30 32 C30 41.57 30 51.14 30 61 C47.82 61 65.64 61 84 61 C84 71.56 84 82.12 84 93 C66.18 93 48.36 93 30 93 C30 102.9 30 112.8 30 123 C51.78 123 73.56 123 96 123 C96 133.56 96 144.12 96 155 C64.32 155 32.64 155 0 155 C0 103.85 0 52.7 0 0 Z " fill="#00D5D0" transform="translate(475,627)"/>
<path d="M0 0 C0.94037109 0.00410889 1.88074219 0.00821777 2.84960938 0.01245117 C3.87183594 0.01438477 4.8940625 0.01631836 5.94726562 0.01831055 C7.01847656 0.03055664 8.0896875 0.04280273 9.19335938 0.05541992 C10.26457031 0.05606445 11.33578125 0.05670898 12.43945312 0.05737305 C20.4127571 0.10261878 20.4127571 0.10261878 22.69335938 1.24291992 C22.72308838 2.45407471 22.72308838 2.45407471 22.75341797 3.68969727 C22.84841836 7.33277868 22.95819849 10.97526678 23.06835938 14.61791992 C23.09929687 15.88893555 23.13023437 17.15995117 23.16210938 18.46948242 C23.22011719 20.28706055 23.22011719 20.28706055 23.27929688 22.14135742 C23.31071777 23.26203613 23.34213867 24.38271484 23.37451172 25.53735352 C23.42747141 28.39002404 23.42747141 28.39002404 25.69335938 30.24291992 C28.39358724 30.59847504 28.39358724 30.59847504 31.54101562 30.62182617 C32.70310547 30.65598633 33.86519531 30.69014648 35.0625 30.7253418 C36.28130859 30.75176758 37.50011719 30.77819336 38.75585938 30.80541992 C41.16351786 30.86507198 43.57108334 30.92865346 45.97851562 30.99682617 C47.04980713 31.02075439 48.12109863 31.04468262 49.22485352 31.06933594 C51.69335938 31.24291992 51.69335938 31.24291992 52.69335938 32.24291992 C52.78084145 34.169595 52.80033272 36.09943853 52.79101562 38.02807617 C52.78618164 39.7828125 52.78618164 39.7828125 52.78125 41.57299805 C52.76868164 43.42054688 52.76868164 43.42054688 52.75585938 45.30541992 C52.75134766 46.54098633 52.74683594 47.77655273 52.7421875 49.04956055 C52.73035545 52.11406109 52.71387111 55.17846714 52.69335938 58.24291992 C51.95698242 58.26797607 51.22060547 58.29303223 50.46191406 58.31884766 C47.1222256 58.43496265 43.7828084 58.55761911 40.44335938 58.68041992 C39.28449219 58.71973633 38.125625 58.75905273 36.93164062 58.79956055 C35.81660156 58.84145508 34.7015625 58.88334961 33.55273438 58.92651367 C32.01311035 58.98150024 32.01311035 58.98150024 30.44238281 59.03759766 C28.0572505 59.2157412 25.98036438 59.57069356 23.69335938 60.24291992 C23.67354004 61.08064941 23.6537207 61.91837891 23.63330078 62.78149414 C23.55525326 65.88657826 23.46856302 68.99126531 23.37597656 72.09594727 C23.31881902 74.10178963 23.27167341 76.1079091 23.22460938 78.11401367 C23.1859375 79.37084961 23.14726562 80.62768555 23.10742188 81.92260742 C23.07600098 83.08518066 23.04458008 84.24775391 23.01220703 85.44555664 C22.69335938 88.24291992 22.69335938 88.24291992 20.69335938 90.24291992 C17.06797059 90.72190434 13.40931158 90.61329822 9.75585938 90.61791992 C8.74072266 90.64241211 7.72558594 90.6669043 6.6796875 90.69213867 C5.70580078 90.69600586 4.73191406 90.69987305 3.72851562 90.70385742 C2.38865601 90.71618408 2.38865601 90.71618408 1.02172852 90.72875977 C-1.30664062 90.24291992 -1.30664062 90.24291992 -3.09594727 88.57592773 C-4.58954726 85.69775844 -4.69025319 83.69049614 -4.71289062 80.45385742 C-4.73480469 79.3478418 -4.75671875 78.24182617 -4.77929688 77.10229492 C-4.79758735 74.77156624 -4.8158161 72.44083706 -4.83398438 70.11010742 C-4.85589844 69.00666992 -4.8778125 67.90323242 -4.90039062 66.76635742 C-4.90748047 65.75492676 -4.91457031 64.74349609 -4.921875 63.70141602 C-5.04884766 62.8901123 -5.17582031 62.07880859 -5.30664062 61.24291992 C-8.69657948 58.98296069 -10.04563995 58.96146237 -14.03320312 58.86401367 C-15.14695312 58.82985352 -16.26070313 58.79569336 -17.40820312 58.76049805 C-18.5709375 58.73407227 -19.73367188 58.70764648 -20.93164062 58.68041992 C-23.23643931 58.6207693 -25.54114082 58.55718808 -27.84570312 58.48901367 C-28.86873535 58.46508545 -29.89176758 58.44115723 -30.94580078 58.41650391 C-33.30664062 58.24291992 -33.30664062 58.24291992 -34.30664062 57.24291992 C-34.55920939 53.27016177 -34.49186513 49.28525817 -34.49414062 45.30541992 C-34.50638672 44.18200195 -34.51863281 43.05858398 -34.53125 41.90112305 C-34.53318359 40.82926758 -34.53511719 39.75741211 -34.53710938 38.65307617 C-34.54121826 37.6644458 -34.54532715 36.67581543 -34.54956055 35.65722656 C-34.30664062 33.24291992 -34.30664062 33.24291992 -32.30664062 31.24291992 C-29.70874023 30.93994141 -29.70874023 30.93994141 -26.45898438 30.86401367 C-24.71584961 30.81277344 -24.71584961 30.81277344 -22.9375 30.76049805 C-21.71869141 30.73407227 -20.49988281 30.70764648 -19.24414062 30.68041992 C-16.83648214 30.62076787 -14.42891666 30.55718638 -12.02148438 30.48901367 C-10.95019287 30.46508545 -9.87890137 30.44115723 -8.77514648 30.41650391 C-6.36315355 30.51802088 -6.36315355 30.51802088 -5.30664062 29.24291992 C-5.17273703 27.26788897 -5.10308831 25.28843397 -5.06054688 23.30932617 C-5.02767578 22.1034082 -4.99480469 20.89749023 -4.9609375 19.6550293 C-4.89983483 17.09261734 -4.84253115 14.53011192 -4.7890625 11.9675293 C-4.75490234 10.76032227 -4.72074219 9.55311523 -4.68554688 8.30932617 C-4.66049072 7.19501221 -4.63543457 6.08069824 -4.60961914 4.93261719 C-4.2221188 1.49257588 -3.51756292 0.37044614 0 0 Z " fill="#00DAD3" transform="translate(387.306640625,323.757080078125)"/>
<path d="M0 0 C5.19227214 3.55538635 9.79170635 7.57140854 11 14 C11.81322333 21.94694191 11.68612048 29.2792894 7 36 C2.08996553 41.453227 -3.32250644 45.4095079 -10.75390625 46.34765625 C-19.05970681 46.76135513 -25.57099099 44.94209893 -31.84765625 39.35546875 C-37.71627666 32.96775661 -39.61427274 26.5220582 -39.3359375 17.92578125 C-38.43507814 10.07992475 -34.2300591 5.62903766 -28.29296875 0.69921875 C-19.15275184 -6.07419582 -9.7267713 -5.31688463 0 0 Z " fill="#01D2CE" transform="translate(584,416)"/>
<path d="M0 0 C5.95979528 3.5188812 10.31171602 7.61045198 12.87890625 14.109375 C13.33103899 16.91330168 13.40337183 19.6476221 13.37890625 22.484375 C13.37391113 23.23879883 13.36891602 23.99322266 13.36376953 24.77050781 C13.17819425 30.6756414 12.12955331 34.80279837 7.87890625 39.109375 C7.4096875 39.59535156 6.94046875 40.08132813 6.45703125 40.58203125 C-0.11817929 46.64465817 -6.30577379 47.6972994 -14.96875 47.44921875 C-22.4742301 46.64007777 -26.97734811 43.01756024 -31.64453125 37.2421875 C-35.90540271 31.08759539 -37.29742574 24.52586814 -36.12109375 17.109375 C-33.8023354 10.12218317 -30.17313295 5.23948283 -24.12109375 1.109375 C-23.23421875 0.490625 -22.34734375 -0.128125 -21.43359375 -0.765625 C-14.60842873 -3.08360557 -6.64406216 -2.94058701 0 0 Z " fill="#01D3CF" transform="translate(464.12109375,414.890625)"/>
<path d="M0 0 C4.57276109 1.63943042 7.82731419 4.26635066 10.5 8.3125 C12.81988089 14.01554052 12.65870266 17.84091905 10.875 23.6875 C8.61832008 27.67430119 6.74823337 29.39918501 3 32 C1.02 32.495 1.02 32.495 -1 33 C-1 63.69 -1 94.38 -1 126 C-4.3 126 -7.6 126 -11 126 C-11 95.31 -11 64.62 -11 33 C-12.65 32.34 -14.3 31.68 -16 31 C-17.765625 29.59765625 -17.765625 29.59765625 -19.25 28.0625 C-19.75015625 27.55847656 -20.2503125 27.05445313 -20.765625 26.53515625 C-24.18318313 22.28483871 -23.52947006 16.13291805 -23 11 C-18.03644669 0.88905807 -10.49727736 -1.14444001 0 0 Z " fill="#02D7D2" transform="translate(616,141)"/>
<path d="M0 0 C15.18 0 30.36 0 46 0 C47.65 3.3 49.3 6.6 51 10 C35.82 10 20.64 10 5 10 C4.34 11.65 3.68 13.3 3 15 C-1.66810939 22.26739758 -8.43950598 30.00435226 -16.1081543 34.13574219 C-18.4972197 36.48996898 -18.5159158 38.27510467 -18.60708618 41.54794312 C-18.60435196 42.64956284 -18.60435196 42.64956284 -18.6015625 43.7734375 C-18.61013275 44.53419586 -18.618703 45.29495422 -18.62753296 46.07876587 C-18.63901272 47.68756127 -18.64002483 49.29646048 -18.63134766 50.90527344 C-18.62503717 53.36053969 -18.67188702 55.8109573 -18.72265625 58.265625 C-18.7272038 59.8307231 -18.72860849 61.39583413 -18.7265625 62.9609375 C-18.74498199 63.69130219 -18.76340149 64.42166687 -18.78237915 65.17416382 C-18.73044465 68.05348492 -18.59627374 70.31979646 -16.65057373 72.53936768 C-15.15577329 73.7638384 -13.58038441 74.88818077 -12 76 C-10.4007285 79.198543 -10.63872092 82.52101629 -11 86 C-12.38734761 89.46836902 -13.58997326 90.72347034 -16.6875 92.8125 C-20.66137745 94.23709757 -23.83209393 94.74040647 -28 94 C-31.72849882 92.17092511 -33.58576516 90.60130864 -35.9375 87.1875 C-37.28786386 83.13640842 -37.31124559 81.07943071 -36 77 C-34.37701416 75.6806488 -34.37701416 75.6806488 -32.46191406 74.37670898 C-30.31249685 72.60124251 -29.16732495 71.60248686 -28.41540527 68.89505005 C-28.27816626 66.3936618 -28.34350263 63.97380996 -28.484375 61.47265625 C-28.51270407 59.61004077 -28.54001658 57.7474096 -28.56640625 55.88476562 C-28.64943631 52.96962452 -28.75024834 50.0565838 -28.87255859 47.14282227 C-29.48486408 30.73940769 -29.48486408 30.73940769 -25.70849609 26.31567383 C-22.87443241 24.55702112 -20.07612869 23.27481871 -17 22 C-9.70920119 16.50791801 -2.90915981 8.72747943 0 0 Z " fill="#01D0CD" transform="translate(487,453)"/>
<path d="M0 0 C1.21816406 0.03480469 1.21816406 0.03480469 2.4609375 0.0703125 C3.68683594 0.09738281 3.68683594 0.09738281 4.9375 0.125 C5.87722656 0.15980469 5.87722656 0.15980469 6.8359375 0.1953125 C6.83514191 1.22626038 6.83434631 2.25720825 6.83352661 3.31939697 C6.82992565 13.0310419 6.85768353 22.74215727 6.9162159 32.45363235 C6.94529933 37.44659142 6.96329824 42.4390799 6.95605469 47.43212891 C6.94947157 52.25002603 6.97188807 57.06699244 7.01449203 61.88469696 C7.02564148 63.7234745 7.02630685 65.56234623 7.01636124 67.40113068 C7.00421917 69.97581205 7.02920914 72.5476391 7.06298828 75.12207031 C7.05076736 75.88380051 7.03854645 76.6455307 7.0259552 77.43034363 C7.01829858 79.83348713 7.01829858 79.83348713 7.8359375 83.1953125 C10.66441829 85.62789384 10.66441829 85.62789384 13.8359375 87.1953125 C16.70401456 90.63700497 17.37897767 93.64288853 17.18359375 98.13671875 C16.3808058 102.89030581 14.17023779 106.16122977 10.3359375 109.1328125 C4.77066056 110.82227157 -1.75678787 111.78145759 -7.203125 109.24609375 C-10.39609734 106.75305869 -12.27555304 104.10475412 -13.1640625 100.1953125 C-13.60411786 95.81076093 -13.6678168 92.3227626 -11.8515625 88.2578125 C-10.1640625 86.1953125 -10.1640625 86.1953125 -7.1640625 84.1953125 C-6.1740625 84.1953125 -5.1840625 84.1953125 -4.1640625 84.1953125 C-4.16850372 83.17245148 -4.17294495 82.14959045 -4.17752075 81.09573364 C-4.21800516 71.47201185 -4.24801717 61.84830725 -4.26768684 52.22451973 C-4.27813904 47.27643418 -4.29232433 42.32841718 -4.31494141 37.38037109 C-4.33661873 32.60823769 -4.3486203 27.83617037 -4.35381699 23.06399155 C-4.35752196 21.2402632 -4.3647565 19.41653861 -4.37552261 17.59283829 C-4.38996971 15.04504738 -4.39204331 12.49753208 -4.39111328 9.94970703 C-4.39830383 9.19013702 -4.40549438 8.43056702 -4.41290283 7.64797974 C-4.38411884 0.3956786 -4.38411884 0.3956786 0 0 Z " fill="#01CBC8" transform="translate(433.1640625,480.8046875)"/>
<path d="M0 0 C4.34355645 1.96628529 7.17662106 4.1841226 9.79296875 8.265625 C11.41521792 13.13237252 11.69285662 18.39248903 10.14453125 23.3359375 C8.29953286 26.97862663 6.99481973 28.18764424 3.17504883 29.66333008 C1.23366964 30.61861442 1.23366964 30.61861442 -0.20703125 32.265625 C-1.18863537 36.50956971 -0.91984383 40.69545096 -0.7578125 45.02734375 C-0.7343413 47.61653034 -0.71157721 50.20572342 -0.68945312 52.79492188 C-0.61985448 56.87262604 -0.52012522 60.94934009 -0.40991211 65.02612305 C-0.30729488 68.96390656 -0.28444885 72.90081503 -0.2578125 76.83984375 C-0.20611404 78.04952316 -0.15441559 79.25920258 -0.10115051 80.50553894 C-0.08632476 85.61737315 -0.15073807 88.92995693 -3.3921814 93.02871704 C-6.80182026 96.13928584 -10.37291937 98.70955041 -14.20703125 101.265625 C-14.65227892 99.85767966 -15.06228297 98.43855485 -15.45703125 97.015625 C-15.6890625 96.22671875 -15.92109375 95.4378125 -16.16015625 94.625 C-16.175625 93.84640625 -16.19109375 93.0678125 -16.20703125 92.265625 C-15.5592572 91.67235413 -14.91148315 91.07908325 -14.24407959 90.46783447 C-11.68496725 87.70123276 -11.69463584 86.38973467 -11.66113281 82.67089844 C-11.63155487 80.98960846 -11.63155487 80.98960846 -11.60137939 79.27435303 C-11.60015076 78.07006653 -11.59892212 76.86578003 -11.59765625 75.625 C-11.58112 74.38768127 -11.56458374 73.15036255 -11.54754639 71.87554932 C-11.5072074 68.59410969 -11.48388364 65.3131287 -11.46881104 62.03149414 C-11.44922454 58.67966659 -11.40692228 55.32821186 -11.3671875 51.9765625 C-11.29318496 45.40632017 -11.24161215 38.83618666 -11.20703125 32.265625 C-12.16311279 31.96527344 -13.11919434 31.66492188 -14.10424805 31.35546875 C-18.76214332 29.71939632 -20.99349947 26.69268857 -23.20703125 22.265625 C-23.70516254 16.81067912 -23.91820152 11.89539019 -21.70703125 6.828125 C-15.39809324 0.36146354 -8.99637063 -2.99348262 0 0 Z " fill="#01D5D0" transform="translate(739.20703125,276.734375)"/>
<path d="M0 0 C5.14763528 2.85337087 7.94205124 6.54341972 9.6484375 12.15625 C10.31941493 17.61992337 9.24131922 21.32812541 6.6484375 26.15625 C3.34096816 30.07299001 1.55111087 31.19518065 -3.3515625 33.15625 C-3.3515625 53.28625 -3.3515625 73.41625 -3.3515625 94.15625 C-6.3215625 95.80625 -9.2915625 97.45625 -12.3515625 99.15625 C-12.3515625 77.37625 -12.3515625 55.59625 -12.3515625 33.15625 C-14.0015625 32.49625 -15.6515625 31.83625 -17.3515625 31.15625 C-21.36494642 27.60953863 -23.96230313 24.776265 -24.7578125 19.421875 C-24.96270754 12.83108454 -24.46064146 8.70753352 -19.9765625 3.71484375 C-14.33803019 -1.69326777 -7.43869117 -2.66903205 0 0 Z " fill="#01DAD5" transform="translate(365.3515625,174.84375)"/>
<path d="M0 0 C2.97 0 5.94 0 9 0 C8.95697754 1.46638916 8.91395508 2.93277832 8.86962891 4.44360352 C8.72712243 9.95114518 8.67930696 15.45634346 8.65820312 20.96557617 C8.63631221 23.33703864 8.58967483 25.70841996 8.51660156 28.07885742 C7.71144315 43.79739929 7.71144315 43.79739929 14.39709473 57.40637207 C17.45556613 60.45578682 20.66899469 63.2538161 24 66 C37.84034631 77.69891647 37.84034631 77.69891647 39.10058594 86.21044922 C39.53481073 91.9779887 39.23079801 97.67424357 38.875 103.4375 C38.80460427 105.44053434 38.74075601 107.44380996 38.68359375 109.44726562 C38.53098008 114.30425332 38.29053222 119.14938906 38 124 C37.01 123.34 36.02 122.68 35 122 C35 121.34 35 120.68 35 120 C34.401875 119.731875 33.80375 119.46375 33.1875 119.1875 C30.84781608 117.91738587 29.58087981 117.14432812 28 115 C27.78979492 111.9440918 27.78979492 111.9440918 27.98046875 108.19921875 C28.02298684 106.82167405 28.06048517 105.44396718 28.09350586 104.06616211 C28.12056107 102.99131058 28.12056107 102.99131058 28.14816284 101.89474487 C28.65266764 87.97282895 28.65266764 87.97282895 22.33300781 76.10253906 C19.89228676 73.9585775 17.40707422 71.98704339 14.71484375 70.16796875 C12.43834538 68.61746075 10.4588377 66.80335018 8.4375 64.9375 C7.87933594 64.47214844 7.32117188 64.00679688 6.74609375 63.52734375 C6.16988281 63.02332031 5.59367188 62.51929688 5 62 C4.14905762 61.4107373 3.29811523 60.82147461 2.42138672 60.21435547 C-1.07408941 56.66683494 -0.56804679 52.46818201 -0.56648254 47.7429657 C-0.54067612 46.52196671 -0.51486969 45.30096771 -0.48828125 44.04296875 C-0.48120651 42.78486893 -0.47413177 41.5267691 -0.46684265 40.23054504 C-0.4436237 36.89750673 -0.39876548 33.56620025 -0.34332275 30.23364258 C-0.29202734 26.82843945 -0.26930691 23.42305686 -0.24414062 20.01757812 C-0.1890377 13.34457554 -0.10538292 6.6723877 0 0 Z " fill="#01D7D4" transform="translate(659,176)"/>
<path d="M0 0 C2.97 0 5.94 0 9 0 C9.1627558 7.68447786 9.28685285 15.36877533 9.3626852 23.05458832 C9.39909729 26.62425452 9.44841685 30.19273495 9.52807617 33.76171875 C9.60458125 37.21128339 9.64608058 40.65971362 9.6641407 44.11006165 C9.68322011 46.05564852 9.7377966 48.00078372 9.79307556 49.94567871 C9.79569213 55.88754296 9.69929089 59.99321014 5.74389648 64.63134766 C4.53063657 65.79164373 3.2854509 66.9202303 2 68 C1.19771973 68.70882324 0.39543945 69.41764648 -0.43115234 70.14794922 C-1.14223145 70.69467285 -1.85331055 71.24139648 -2.5859375 71.8046875 C-9.93269626 77.91619053 -16.09185761 83.06417001 -17.390625 92.953125 C-17.77580613 99.32462672 -17.5861783 105.646536 -17 112 C-20.3 112 -23.6 112 -27 112 C-27.17452809 108.01692377 -27.30074085 104.03535981 -27.38452148 100.04931641 C-27.43656965 98.03598769 -27.5255711 96.02372323 -27.61523438 94.01171875 C-27.80860985 83.01694191 -27.80860985 83.01694191 -23.8125 78.41015625 C-22.56822528 77.24442588 -21.29849785 76.1050114 -20 75 C-19.05485002 74.02815792 -18.11776472 73.04836417 -17.19140625 72.05859375 C-15.89009766 70.76115234 -15.89009766 70.76115234 -14.5625 69.4375 C-13.22828579 68.099309 -11.89422475 66.7609558 -10.56446838 65.41833496 C-9 64 -9 64 -6.99790955 62.65686035 C-3.56395916 60.20950283 -1.35159895 58.33900992 -0.25758362 54.17262268 C0.021249 50.70894383 0.05572294 47.32214649 0 43.84765625 C0.0163147 41.96475136 0.0163147 41.96475136 0.03295898 40.04380798 C0.0546475 36.7266143 0.04220565 33.41319294 0.01287842 30.09631348 C-0.00860187 26.70405755 0.01525428 23.31214276 0.03515625 19.91992188 C0.06498126 13.2794809 0.04977984 6.64029578 0 0 Z " fill="#01D5D2" transform="translate(414,151)"/>
<path d="M0 0 C20.35135135 0 20.35135135 0 26.8125 5.3125 C30.69212342 10.07889448 31.41138393 14.70393393 31.25 20.6953125 C30.53908597 27.24905126 28.11070925 31.76185086 23 36 C19 38 19 38 0 38 C0 25.46 0 12.92 0 0 Z " fill="#02D8D2" transform="translate(436,822)"/>
<path d="M0 0 C4.43622001 3.91431178 7.89543327 7.60808891 8.328125 13.765625 C8.4437114 22.04931673 8.22387556 27.20527894 2.75 33.6875 C-1.59763991 37.31053326 -5.16034652 38.35316818 -10.88671875 38.19140625 C-15.4245051 37.46928308 -18.22199896 34.59859575 -21.1875 31.3125 C-25.40301238 25.22342657 -24.49591609 16.97716379 -23.875 9.875 C-22.37822808 5.53995104 -20.03845351 2.97001507 -16.75 -0.125 C-11.31339954 -2.01599146 -5.37518898 -2.10333482 0 0 Z " fill="#03D9D4" transform="translate(659.875,823.125)"/>
<path d="M0 0 C3.3 0 6.6 0 10 0 C13.50969964 42.1703911 13.50969964 42.1703911 5.58203125 51.80859375 C2.11559569 55.15922972 -1.65555763 58.00768842 -5.48046875 60.93359375 C-9.08632322 63.77323046 -10.68206499 65.61513351 -11.55078125 70.16015625 C-11.91028945 74.52078898 -11.64699556 78.67973931 -11 83 C-14.33333333 81.66666667 -17.66666667 80.33333333 -21 79 C-23.37565798 64.74605212 -23.37565798 64.74605212 -19.49414062 58.62548828 C-14.9194946 53.18697561 -9.21317274 47.11125109 -2.79492188 43.89501953 C0.2447485 40.68583544 -0.39640652 36.76973265 -0.390625 32.51953125 C-0.37408875 31.59154221 -0.35755249 30.66355316 -0.34051514 29.70744324 C-0.29191573 26.74239565 -0.27063778 23.77786134 -0.25 20.8125 C-0.2218503 18.80270838 -0.19192429 16.7929408 -0.16015625 14.78320312 C-0.08615355 9.85551099 -0.03665194 4.9281058 0 0 Z " fill="#01D1CE" transform="translate(441,189)"/>
<path d="M0 0 C2.64 0 5.28 0 8 0 C9.294174 2.56126064 10.58540784 5.12393358 11.875 7.6875 C12.23980469 8.40873047 12.60460937 9.12996094 12.98046875 9.87304688 C14.8179242 13.53125364 16.56138502 17.1611695 18 21 C19.64616818 17.87517628 21.29187754 14.75011114 22.9375 11.625 C23.40607422 10.73554687 23.87464844 9.84609375 24.35742188 8.9296875 C24.80537109 8.07890625 25.25332031 7.228125 25.71484375 6.3515625 C26.33540649 5.17327881 26.33540649 5.17327881 26.96850586 3.97119141 C27.65788624 2.65378141 28.33504671 1.32990658 29 0 C31.64 0 34.28 0 37 0 C37 12.87 37 25.74 37 39 C34.36 39 31.72 39 29 39 C28.67 31.74 28.34 24.48 28 17 C25.36 21.95 22.72 26.9 20 32 C18.35 32 16.7 32 15 32 C12.69 27.05 10.38 22.1 8 17 C7.67 23.93 7.34 30.86 7 38 C4.69 38 2.38 38 0 38 C0 25.46 0 12.92 0 0 Z " fill="#03DED9" transform="translate(325,822)"/>
<path d="M0 0 C18 0 18 0 25 4 C27.82368571 8.23552856 27.66653757 12.02477314 27 17 C25.20353146 19.93423195 24.0558929 21.47205355 21 23 C22.32038384 26.6150315 23.93170407 29.59250151 26.125 32.75 C29 36.90430622 29 36.90430622 29 38 C24.0877193 38.96491228 24.0877193 38.96491228 21 38 C13 29.77027027 13 29.77027027 13 25 C11.02 25 9.04 25 7 25 C7 29.29 7 33.58 7 38 C4.69 38 2.38 38 0 38 C0 25.46 0 12.92 0 0 Z " fill="#03DAD5" transform="translate(761,822)"/>
<path d="M0 0 C3.3 0 6.6 0 10 0 C9.96745117 0.69971924 9.93490234 1.39943848 9.90136719 2.12036133 C8.7697217 16.19987224 8.7697217 16.19987224 13.45703125 28.86328125 C16.91025349 32.25360631 21.04689911 34.81552322 25.16943359 37.31567383 C28.83947447 39.9084694 30.73684834 41.67989126 31.63500977 46.18554688 C31.78764337 49.96698713 31.698394 53.65847578 31.5 57.4375 C31.46390625 58.74138672 31.4278125 60.04527344 31.390625 61.38867188 C31.29665243 64.59548584 31.16538988 67.7962071 31 71 C28.03 71 25.06 71 22 71 C22.03311279 70.0255896 22.03311279 70.0255896 22.06689453 69.03149414 C22.77777672 56.45281973 22.77777672 56.45281973 19.09375 44.8203125 C15.59062602 41.79387944 11.93779817 39.51720276 7.890625 37.28515625 C4.3312327 34.88302751 1.65818694 32.98987457 0 29 C-1.38861919 19.4516441 -0.66870502 9.59007171 0 0 Z " fill="#01D2CF" transform="translate(571,481)"/>
<path d="M0 0 C4.07592745 2.23022446 6.24910972 4.68571945 8.3125 8.8125 C8.83907873 14.09555214 8.95441122 18.48112857 6.625 23.3125 C3.55987445 26.62614924 0.94185537 28.5261419 -3.5546875 29.31640625 C-12.67920481 29.49415659 -12.67920481 29.49415659 -16.8125 26.125 C-20.52392633 22.25102945 -21.54439459 19.29125592 -22.0625 13.9375 C-21.91906326 9.46564878 -20.60690394 6.20416046 -17.6875 2.8125 C-12.13885361 -1.84341863 -6.86822587 -2.21180155 0 0 Z " fill="#00101C" transform="translate(576.6875,423.1875)"/>
<path d="M0 0 C4.85978996 2.29735525 7.59883576 5.19767151 10 10 C10.70173406 15.43843896 10.07453486 19.42362646 7.39453125 24.234375 C4.04877045 28.47046431 -0.38352567 29.77312641 -5.5625 30.5 C-10.68541935 29.75484809 -14.27303506 27.84209593 -17.875 24 C-20.3218881 19.64997671 -20.68496253 14.92792483 -20 10 C-15.32857175 1.00317522 -9.8074164 -1.41342178 0 0 Z " fill="#000F1C" transform="translate(458,423)"/>
<path d="M0 0 C3.60314324 1.94106728 6.16654538 4.33309077 8 8 C8.5099099 13.58393133 8.73870063 18.44052088 6.3125 23.5625 C2.30004554 27.79184389 -0.48831 29.20668801 -6.3125 29.625 C-11.91959322 29.5036015 -14.63550945 27.59824981 -18.5390625 23.7265625 C-21.68064249 20.01378615 -21.32820427 16.46400855 -21.28515625 11.765625 C-20.80410786 7.10011463 -18.59184276 4.47788534 -15.25390625 1.37890625 C-10.68246091 -1.41783587 -5.13822102 -0.7928968 0 0 Z " fill="#01D8D3" transform="translate(634,323)"/>
<path d="M0 0 C3.50281304 1.87359767 5.95232712 3.84531674 7.97265625 7.23828125 C8.37109375 10.078125 8.37109375 10.078125 8.34765625 13.17578125 C8.35539063 14.19542969 8.363125 15.21507812 8.37109375 16.265625 C7.82600282 20.33243086 6.4593059 23.00913443 3.28125 25.63671875 C-2.23040858 28.51336728 -7.02914728 29.11758631 -13.02734375 27.23828125 C-16.38824283 25.13771932 -19.23879803 22.81537269 -21.02734375 19.23828125 C-21.55117693 13.98277454 -21.64732217 9.57361939 -19.40234375 4.73828125 C-14.13757804 -0.80357739 -7.27554373 -2.73358579 0 0 Z " fill="#00D0CC" transform="translate(634.02734375,386.76171875)"/>
<path d="M0 0 C3.87856292 1.76916905 5.45923101 3.22489778 7.875 6.6875 C9.31893989 10.9391008 9.71653219 14.55750043 9 19 C6.74170378 23.51659244 4.47986705 25.76967992 0 28 C-2.9375 28.3984375 -2.9375 28.3984375 -6 28.375 C-7.010625 28.38273437 -8.02125 28.39046875 -9.0625 28.3984375 C-13.55117867 27.78960077 -16.02946677 26.2670258 -18.77734375 22.6796875 C-20.96197692 17.89164165 -20.86161177 13.13574892 -20 8 C-15.30865019 -0.45016832 -9.04649505 -0.83960934 0 0 Z " fill="#01D5D0" transform="translate(665,355)"/>
<path d="M0 0 C0.12383064 5.32014516 0.21444676 10.63944714 0.2746582 15.96069336 C0.2997639 17.76976132 0.33385595 19.57872822 0.37719727 21.38745117 C0.43802579 23.99162751 0.46624809 26.59446031 0.48828125 29.19921875 C0.51408768 30.00461594 0.5398941 30.81001312 0.56648254 31.63981628 C0.56857965 35.86235888 0.42944161 37.47173405 -2.32446289 40.859375 C-3.20739014 41.56578125 -4.09031738 42.2721875 -5 43 C-5.57588867 43.53923096 -6.15177734 44.07846191 -6.74511719 44.6340332 C-7.25719727 45.10156006 -7.76927734 45.56908691 -8.296875 46.05078125 C-9.44813433 47.13779035 -10.59917303 48.22503317 -11.75 49.3125 C-12.33910156 49.84294922 -12.92820312 50.37339844 -13.53515625 50.91992188 C-17.89922633 55.10842592 -18.81544079 57.95568601 -19 64 C-22.3 64 -25.6 64 -29 64 C-30.05285361 53.97282278 -30.05285361 53.97282278 -27.79296875 49.73828125 C-25.97920216 47.64416666 -24.08001493 45.83099906 -22 44 C-20.68515625 42.78570313 -20.68515625 42.78570313 -19.34375 41.546875 C-16.9214318 39.33337734 -14.46874308 37.16133254 -12 35 C-10.73939162 33.96850458 -10.73939162 33.96850458 -10.9375 31.734375 C-10.958125 30.74953125 -10.97875 29.7646875 -11 28.75 C-11.07926099 9.77123811 -11.07926099 9.77123811 -7.96875 5.33984375 C-2.48130081 0 -2.48130081 0 0 0 Z " fill="#01D0CD" transform="translate(415,498)"/>
<path d="M0 0 C4.3087341 2.35299664 7.11571682 5.47419835 9 10 C9.48578712 15.24650092 8.8850004 18.57633272 6 23 C3.09186242 26.43011099 1.59999242 27.74760065 -2.84765625 28.44921875 C-7.72103692 28.62434643 -11.16930343 28.38670358 -15.625 26.3125 C-19.44898616 22.58914505 -20.31099991 18.80853328 -20.4375 13.5625 C-20.37163616 9.80319447 -20.12463588 7.4039682 -17.75 4.4375 C-12.29937273 -0.3937378 -7.16299624 -1.17359825 0 0 Z " fill="#00D3CF" transform="translate(601,355)"/>
<path d="M0 0 C4.77800128 1.65058226 7.11259538 3.89100112 10 8 C8.68 9.32 7.36 10.64 6 12 C3.76889149 10.96412819 1.99362603 9.99447589 0.125 8.375 C-2.83649997 6.45873531 -4.53477854 6.43424956 -8 7 C-10.58495862 9.06796689 -12.44744749 10.76738286 -13.8125 13.8125 C-14.41643981 20.8584645 -14.60973236 24.27275676 -10 30 C-8.33315985 31.66684015 -6.34356931 31.21072764 -4.0625 31.25 C-3.16660156 31.27578125 -2.27070313 31.3015625 -1.34765625 31.328125 C-0.18556641 31.16570313 -0.18556641 31.16570313 1 31 C2.9451 28.08235 3.45276317 26.37462715 4 23 C1.69 23 -0.62 23 -3 23 C-3 21.02 -3 19.04 -3 17 C1.62 17 6.24 17 11 17 C11.68172157 30.63443146 11.68172157 30.63443146 7 36 C2.08408484 39.21927187 -3.29305681 39.55228482 -9 39 C-14.16064968 37.17859423 -16.82703909 34.40689015 -20 30 C-23.04081376 23.5899222 -23.03497096 16.36053075 -20.875 9.625 C-16.93160278 0.43631845 -9.01372554 -0.7012092 0 0 Z " fill="#03D7D2" transform="translate(258,822)"/>
<path d="M0 0 C1.134375 0.020625 2.26875 0.04125 3.4375 0.0625 C6.82094026 7.4060489 9.78168251 14.89420053 12.6875 22.4375 C13.14640625 23.61183594 13.6053125 24.78617188 14.078125 25.99609375 C14.51125 27.11886719 14.944375 28.24164062 15.390625 29.3984375 C15.78411133 30.41470215 16.17759766 31.4309668 16.58300781 32.47802734 C17.4375 35.0625 17.4375 35.0625 17.4375 38.0625 C15.1275 38.0625 12.8175 38.0625 10.4375 38.0625 C9.4475 35.4225 8.4575 32.7825 7.4375 30.0625 C2.4875 29.7325 -2.4625 29.4025 -7.5625 29.0625 C-8.5525 32.0325 -9.5425 35.0025 -10.5625 38.0625 C-12.8725 38.0625 -15.1825 38.0625 -17.5625 38.0625 C-15.26350598 29.88633408 -12.40396786 21.95475026 -9.4375 14 C-8.98246094 12.76572266 -8.52742188 11.53144531 -8.05859375 10.25976562 C-4.27649216 0.07502618 -4.27649216 0.07502618 0 0 Z " fill="#03D5D0" transform="translate(295.5625,821.9375)"/>
<path d="M0 0 C8.58 0 17.16 0 26 0 C26 2.31 26 4.62 26 7 C19.73 7 13.46 7 7 7 C7 9.97 7 12.94 7 16 C12.61 16 18.22 16 24 16 C24 17.98 24 19.96 24 22 C18.39 22 12.78 22 7 22 C7 25.3 7 28.6 7 32 C13.27 32 19.54 32 26 32 C26 34.31 26 36.62 26 39 C17.42 39 8.84 39 0 39 C0 26.13 0 13.26 0 0 Z " fill="#02E2DC" transform="translate(480,822)"/>
<path d="M0 0 C8.25 0 16.5 0 25 0 C25 2.31 25 4.62 25 7 C19.06 7 13.12 7 7 7 C7 9.97 7 12.94 7 16 C12.61 16 18.22 16 24 16 C24 18.31 24 20.62 24 23 C18.39 23 12.78 23 7 23 C7 25.97 7 28.94 7 32 C12.94 32 18.88 32 25 32 C25 33.98 25 35.96 25 38 C16.75 38 8.5 38 0 38 C0 25.46 0 12.92 0 0 Z " fill="#03CFCA" transform="translate(563,822)"/>
<path d="M0 0 C8.25 0 16.5 0 25 0 C25 2.31 25 4.62 25 7 C19.06 7 13.12 7 7 7 C7 9.97 7 12.94 7 16 C12.28 16 17.56 16 23 16 C23 17.98 23 19.96 23 22 C17.39 22 11.78 22 6 22 C6 25.3 6 28.6 6 32 C12.27 32 18.54 32 25 32 C25 33.98 25 35.96 25 38 C16.75 38 8.5 38 0 38 C0 25.46 0 12.92 0 0 Z " fill="#03D9D3" transform="translate(377,822)"/>
<path d="M0 0 C8.25 0 16.5 0 25 0 C25 2.31 25 4.62 25 7 C18.73 7 12.46 7 6 7 C6 9.97 6 12.94 6 16 C11.61 16 17.22 16 23 16 C23 17.98 23 19.96 23 22 C17.39 22 11.78 22 6 22 C6 25.3 6 28.6 6 32 C12.27 32 18.54 32 25 32 C25 33.98 25 35.96 25 38 C16.75 38 8.5 38 0 38 C0 25.46 0 12.92 0 0 Z " fill="#02DED8" transform="translate(722,822)"/>
<path d="M0 0 C2.31 0 4.62 0 7 0 C9.99449558 6.44968278 12.54819071 13.0007265 14.98095703 19.67773438 C16.04055627 23.09997942 16.04055627 23.09997942 18 26 C21.3 17.42 24.6 8.84 28 0 C30.31 0 32.62 0 35 0 C32.70100598 8.17616592 29.84146786 16.10774974 26.875 24.0625 C26.41996094 25.29677734 25.96492187 26.53105469 25.49609375 27.80273438 C22.12835506 36.87164494 22.12835506 36.87164494 21 38 C18.66702567 38.04092937 16.33294775 38.04241723 14 38 C10.08985837 28.32172737 6.19121953 18.63931176 2.5 8.875 C2.24524902 8.20726562 1.99049805 7.53953125 1.72802734 6.8515625 C0 2.24026038 0 2.24026038 0 0 Z " fill="#02D9D4" transform="translate(516,822)"/>
<path d="M0 0 C0.66 0.33 1.32 0.66 2 1 C1.67 1.33 1.34 1.66 1 2 C0.86433424 4.99304235 0.78933832 7.9662186 0.75390625 10.9609375 C0.72096702 12.81250471 0.68775539 14.6640671 0.65429688 16.515625 C0.60685699 19.44755713 0.56244017 22.37946976 0.52319336 25.31152344 C0.48352665 28.13237292 0.4319657 30.95281266 0.37890625 33.7734375 C0.3704921 34.65164154 0.36207794 35.52984558 0.35340881 36.43466187 C0.32844582 37.66075668 0.32844582 37.66075668 0.30297852 38.91162109 C0.29267105 39.63030365 0.28236359 40.34898621 0.27174377 41.08944702 C0 43 0 43 -2 46 C-1.34 46 -0.68 46 0 46 C0 46.66 0 47.32 0 48 C1.65 48 3.3 48 5 48 C4.67 47.67 4.34 47.34 4 47 C4.66 45.68 5.32 44.36 6 43 C7.14926266 43.95421808 8.29430541 44.91352045 9.4375 45.875 C10.07558594 46.40867187 10.71367187 46.94234375 11.37109375 47.4921875 C13.64135598 49.59367724 13.97550526 50.64074375 14.1875 53.75 C13.98184154 57.3147466 13.57216249 59.78421309 12 63 C8.14208408 65.75565423 4.60606893 66.55210724 -0.04296875 66.34765625 C-3.44375839 65.74352396 -5.44572722 64.25726432 -8 62 C-10.32640895 58.62295475 -10.97854229 56.60081584 -11.125 52.5 C-9.90527111 48.7052879 -9.55251476 48.48069735 -6.48608398 46.39208984 C-4.31812716 44.60123686 -3.17004917 43.55461925 -2.33987427 40.84698486 C-2.09663463 38.28550786 -2.05634393 35.79925013 -2.09765625 33.2265625 C-2.08536484 32.3028183 -2.07307343 31.3790741 -2.06040955 30.42733765 C-2.02875152 27.49241026 -2.04493521 24.56000443 -2.0625 21.625 C-2.04938682 19.62888297 -2.03314488 17.63278387 -2.01367188 15.63671875 C-1.97287923 10.75727647 -1.97497189 5.87953066 -2 1 C-1.34 0.67 -0.68 0.34 0 0 Z " fill="#00CECB" transform="translate(461,481)"/>
<path d="M0 0 C3.16115776 1.36983503 3.9927092 1.9890638 6 5 C6.763125 5.45375 7.52625 5.9075 8.3125 6.375 C11.58987614 8.35666929 13.61917667 9.95981876 16 13 C16.68400925 16.30659475 16.58319272 19.53018358 16.48828125 22.89453125 C16.48120651 23.84188644 16.47413177 24.78924164 16.46684265 25.76530457 C16.43892334 28.78185021 16.37618915 31.7965184 16.3125 34.8125 C16.28741396 36.86130126 16.26460133 38.9101317 16.24414062 40.95898438 C16.18910459 45.97337621 16.10284856 50.98637014 16 56 C15.01 55.34 14.02 54.68 13 54 C13 53.34 13 52.68 13 52 C12.401875 51.731875 11.80375 51.46375 11.1875 51.1875 C8.84174528 49.91409029 7.59087251 49.14580842 6 47 C5.65942383 43.84545898 5.65942383 43.84545898 5.70703125 39.99609375 C5.71127609 39.31700455 5.71552094 38.63791534 5.71989441 37.93824768 C5.73666493 35.7709259 5.77428782 33.60453944 5.8125 31.4375 C5.82755117 29.97462292 5.84123883 28.51173112 5.85351562 27.04882812 C5.88727163 23.3656112 5.94204106 19.68291936 6 16 C6.22293325 13.81170957 6.22293325 13.81170957 4.25 12.0546875 C3.5075 11.33539063 2.765 10.61609375 2 9.875 C1.2575 9.15054688 0.515 8.42609375 -0.25 7.6796875 C-0.8275 7.12539062 -1.405 6.57109375 -2 6 C-1.34 4.02 -0.68 2.04 0 0 Z " fill="#01D1CE" transform="translate(681,244)"/>
<path d="M0 0 C1.47716433 6.39695437 2.93162164 12.79865922 4.3671875 19.20507812 C4.89625994 21.54181472 5.44351172 23.87283034 6 26.203125 C8.8438311 38.83629776 10.61965514 53.25107991 4 65 C0.82915722 69.50079343 -2.79106069 73.88826785 -8 76 C-10.25 75.875 -10.25 75.875 -12 75 C-12.33 74.01 -12.66 73.02 -13 72 C-12.39671875 71.64808594 -11.7934375 71.29617188 -11.171875 70.93359375 C-5.13988363 67.20737973 -1.72855037 64.16197235 0.5703125 57.296875 C3.15978779 43.45495254 0.06607175 29.41539319 -2.80859375 15.8984375 C-3.85920279 10.93469044 -4.53934429 6.05132812 -5 1 C-2 0 -2 0 0 0 Z " fill="#00CAC9" transform="translate(705,443)"/>
<path d="M0 0 C2.48995986 2.12378929 3.97284978 3.78460141 4.4609375 7.08203125 C4.54897465 12.81324968 4.19746664 16.40983336 0.125 20.8125 C-5.19908898 23.49277767 -10.02138811 22.95355089 -15.875 22.8125 C-15.875 27.1025 -15.875 31.3925 -15.875 35.8125 C-18.185 35.8125 -20.495 35.8125 -22.875 35.8125 C-22.545 23.9325 -22.215 12.0525 -21.875 -0.1875 C-21.545 -0.1875 -21.215 -0.1875 -20.875 -0.1875 C-20.545 1.7925 -20.215 3.7725 -19.875 5.8125 C-18.555 5.4825 -17.235 5.1525 -15.875 4.8125 C-15.875 8.4425 -15.875 12.0725 -15.875 15.8125 C-13.1834375 15.5959375 -13.1834375 15.5959375 -10.4375 15.375 C-9.42816406 15.29378906 -8.41882813 15.21257813 -7.37890625 15.12890625 C-4.93859221 15.08038532 -4.93859221 15.08038532 -3.875 13.8125 C-3.54161404 10.35437831 -3.54161404 10.35437831 -3.875 6.8125 C-6.91025486 4.78899676 -8.06926202 4.49125982 -11.5625 4.1875 C-12.77486328 4.07535156 -12.77486328 4.07535156 -14.01171875 3.9609375 C-14.62660156 3.91195312 -15.24148438 3.86296875 -15.875 3.8125 C-15.875 3.4825 -15.875 3.1525 -15.875 2.8125 C-14.225 2.4825 -12.575 2.1525 -10.875 1.8125 C-10.875 1.4825 -10.875 1.1525 -10.875 0.8125 C-3.6589599 -1.51130952 -3.6589599 -1.51130952 0 0 Z " fill="#02D8D3" transform="translate(704.875,824.1875)"/>
<path d="M0 0 C2.97 0.495 2.97 0.495 6 1 C3.99838386 9.98372419 1.79822813 18.86034193 -0.8125 27.6875 C-4.82187783 41.30322199 -7.87077777 55.16135665 -11 69 C-12.65 69 -14.3 69 -16 69 C-15.50455866 60.45336472 -13.92806004 52.37713857 -11.9375 44.0625 C-11.71197952 43.10594513 -11.71197952 43.10594513 -11.48190308 42.13006592 C-8.13512558 27.94929723 -4.15590649 13.96371556 0 0 Z " fill="#01C9C8" transform="translate(324,406)"/>
<path d="M0 0 C2.31 0 4.62 0 7 0 C7 10.56 7 21.12 7 32 C12.61 32 18.22 32 24 32 C24 34.31 24 36.62 24 39 C16.08 39 8.16 39 0 39 C0 26.13 0 13.26 0 0 Z " fill="#02CFCB" transform="translate(602,822)"/>
<path d="M0 0 C3.24060072 0.1812178 4.30239913 0.41923937 7 2.375 C10.21815112 7.06813705 9.97774844 12.0769242 9.5 17.5625 C8.31821224 20.87150573 7.45335902 22.77938366 4.75 25 C1.32046336 25.85738416 -1.09861914 25.47358416 -4.5 24.5625 C-7.35141696 21.79764392 -8.40914774 20.13967905 -9.03125 16.1875 C-9.0209375 14.99125 -9.010625 13.795 -9 12.5625 C-9.0103125 11.36625 -9.020625 10.17 -9.03125 8.9375 C-8.17550472 3.50100059 -5.8144141 -0.16925521 0 0 Z " fill="#000F1A" transform="translate(651.5,828.4375)"/>
<path d="M0 0 C2.64 0 5.28 0 8 0 C8 12.87 8 25.74 8 39 C5.36 39 2.72 39 0 39 C-0.33 31.41 -0.66 23.82 -1 16 C-1.99 17.32 -2.98 18.64 -4 20 C-4.66 20.66 -5.32 21.32 -6 22 C-7.25299392 19.05474419 -6.99750901 17.99354156 -5.8203125 14.94140625 C-5.26085937 13.82636719 -4.70140625 12.71132813 -4.125 11.5625 C-2.191686 7.68238376 -0.62770612 4.30542017 0 0 Z " fill="#02C7C4" transform="translate(354,822)"/>
<path d="M0 0 C11.42307692 0 11.42307692 0 15 3 C17.34061355 7.68122711 16.48771898 13.91714552 16 19 C14.1875 22.375 14.1875 22.375 11 24 C7.37 24 3.74 24 0 24 C0 16.08 0 8.16 0 0 Z " fill="#000E19" transform="translate(443,829)"/>
<path d="M0 0 C5.61 0 11.22 0 17 0 C17 6.27 17 12.54 17 19 C11.39 19 5.78 19 0 19 C0 12.73 0 6.46 0 0 Z " fill="#00C6C6" transform="translate(437,169)"/>
<path d="M0 0 C2.93774463 -0.05390357 5.87450232 -0.0936255 8.8125 -0.125 C10.06256836 -0.15013672 10.06256836 -0.15013672 11.33789062 -0.17578125 C12.14033203 -0.18222656 12.94277344 -0.18867187 13.76953125 -0.1953125 C14.50792236 -0.20578613 15.24631348 -0.21625977 16.00708008 -0.22705078 C18 0 18 0 21 2 C20.67 2.61875 20.34 3.2375 20 3.875 C18.85806765 5.91018344 18.85806765 5.91018344 19 8 C19.33 8.33 19.66 8.66 20 9 C20.25 12.4375 20.25 12.4375 20 16 C16.61877827 18.25414782 15.3935272 18.24544447 11.4375 18.1875 C10.46683594 18.18105469 9.49617187 18.17460938 8.49609375 18.16796875 C6 18 6 18 4 17 C3.40644386 14.35139573 3.25790731 11.70802678 3 9 C2.01 9.495 2.01 9.495 1 10 C-0.1577506 6.52674819 -0.06866652 3.63932552 0 0 Z " fill="#02D1CC" transform="translate(761,822)"/>
<path d="M0 0 C5.61 0 11.22 0 17 0 C17 5.61 17 11.22 17 17 C11.39 17 5.78 17 0 17 C0 11.39 0 5.78 0 0 Z " fill="#00D1D0" transform="translate(655,150)"/>
<path d="M0 0 C4.14587582 -0.0268245 8.29158038 -0.04675315 12.4375 -0.0625 C14.21350586 -0.07506836 14.21350586 -0.07506836 16.02539062 -0.08789062 C17.15009766 -0.09111328 18.27480469 -0.09433594 19.43359375 -0.09765625 C20.47572021 -0.10289307 21.51784668 -0.10812988 22.59155273 -0.11352539 C25 0 25 0 26 1 C26.0979057 2.49738124 26.12974864 3.99942892 26.125 5.5 C26.12886719 6.72203125 26.12886719 6.72203125 26.1328125 7.96875 C26 10 26 10 25 11 C23.14630389 11.08737645 21.28932459 11.10698153 19.43359375 11.09765625 C18.30888672 11.09443359 17.18417969 11.09121094 16.02539062 11.08789062 C14.84138672 11.07951172 13.65738281 11.07113281 12.4375 11.0625 C11.24962891 11.05798828 10.06175781 11.05347656 8.83789062 11.04882812 C5.89190588 11.03699686 2.94594684 11.01906076 0 11 C0 7.37 0 3.74 0 0 Z " fill="#00D6D0" transform="translate(462,334)"/>
<path d="M0 0 C6.27 0 12.54 0 19 0 C19.33 0.66 19.66 1.32 20 2 C18.68 3.32 17.36 4.64 16 6 C16.99 6.5259375 16.99 6.5259375 18 7.0625 C20 9 20 9 20.375 12.5625 C20 16 20 16 18 18 C14.31975395 18.27629475 10.69505443 18.0859315 7 18 C7 14.37 7 10.74 7 7 C6.34 7 5.68 7 5 7 C4.34 9.31 3.68 11.62 3 14 C2.67 14 2.34 14 2 14 C1.67 21.59 1.34 29.18 1 37 C0.67 37 0.34 37 0 37 C0 24.79 0 12.58 0 0 Z " fill="#02D0CB" transform="translate(682,822)"/>
<path d="M0 0 C5.61 0 11.22 0 17 0 C17 5.28 17 10.56 17 16 C11.39 16 5.78 16 0 16 C0 10.72 0 5.44 0 0 Z " fill="#00C5C3" transform="translate(383,573)"/>
<path d="M0 0 C5.61 0 11.22 0 17 0 C17 5.28 17 10.56 17 16 C11.39 16 5.78 16 0 16 C0 10.72 0 5.44 0 0 Z " fill="#00D0CE" transform="translate(590,563)"/>
<path d="M0 0 C3.81254623 -0.02682792 7.62490612 -0.04675477 11.4375 -0.0625 C12.52611328 -0.07087891 13.61472656 -0.07925781 14.73632812 -0.08789062 C15.77080078 -0.09111328 16.80527344 -0.09433594 17.87109375 -0.09765625 C18.82943115 -0.10289307 19.78776855 -0.10812988 20.77514648 -0.11352539 C23 0 23 0 24 1 C24.07179964 2.51928038 24.08392007 4.04167482 24.0625 5.5625 C24.05347656 6.38878906 24.04445313 7.21507812 24.03515625 8.06640625 C24.02355469 8.70449219 24.01195312 9.34257812 24 10 C21.49502996 11.25248502 19.79146726 11.11374406 16.9921875 11.09765625 C16.00605469 11.09443359 15.01992188 11.09121094 14.00390625 11.08789062 C12.97136719 11.07951172 11.93882812 11.07113281 10.875 11.0625 C9.31458984 11.05573242 9.31458984 11.05573242 7.72265625 11.04882812 C5.14841313 11.03701967 2.57419947 11.01908385 0 11 C0 7.37 0 3.74 0 0 Z " fill="#00D1CD" transform="translate(538,334)"/>
<path d="M0 0 C5.28 0 10.56 0 16 0 C16 5.28 16 10.56 16 16 C10.72 16 5.44 16 0 16 C0 10.72 0 5.44 0 0 Z " fill="#00C2C3" transform="translate(289,247)"/>
<path d="M0 0 C5.28 0 10.56 0 16 0 C16 5.28 16 10.56 16 16 C10.72 16 5.44 16 0 16 C0 10.72 0 5.44 0 0 Z " fill="#00CECE" transform="translate(410,122)"/>
<path d="M0 0 C3.96 0 7.92 0 12 0 C12 19.47 12 38.94 12 59 C11.67 59 11.34 59 11 59 C11 39.86 11 20.72 11 1 C8.03 1 5.06 1 2 1 C2.01110306 1.7052179 2.02220612 2.41043579 2.03364563 3.13702393 C2.13388586 9.7873522 2.20998354 16.4374693 2.25906086 23.08838272 C2.28514091 26.50765493 2.3205065 29.92630228 2.37719727 33.34521484 C2.44198227 37.27694178 2.4661939 41.20841689 2.48828125 45.140625 C2.51408768 46.36678528 2.5398941 47.59294556 2.56648254 48.85626221 C2.5668602 49.99714294 2.56723785 51.13802368 2.56762695 52.31347656 C2.57873001 53.31719299 2.58983307 54.32090942 2.60127258 55.3550415 C1.78293518 58.95485386 -0.00351351 60.00042526 -3 62 C-3 58 -3 58 -2 57 C-1.88207919 55.25674841 -1.83266471 53.50881412 -1.81054688 51.76171875 C-1.78547058 50.08493042 -1.78547058 50.08493042 -1.7598877 48.37426758 C-1.74631226 47.15763428 -1.73273682 45.94100098 -1.71875 44.6875 C-1.70034058 43.44830811 -1.68193115 42.20911621 -1.66296387 40.93237305 C-1.60399014 36.95496457 -1.55106125 32.97751571 -1.5 29 C-1.43286945 23.77073471 -1.35893379 18.54162222 -1.28125 13.3125 C-1.26767456 12.0958667 -1.25409912 10.8792334 -1.2401123 9.62573242 C-1.21503601 7.94894409 -1.21503601 7.94894409 -1.18945312 6.23828125 C-1.17066101 4.7538855 -1.17066101 4.7538855 -1.15148926 3.23950195 C-1 1 -1 1 0 0 Z " fill="#002C30" transform="translate(412,150)"/>
<path d="M0 0 C2.7853139 4.92700945 2.74858362 9.72494668 1.5 15.1875 C-0.26922096 20.49516289 -2.99943993 24.19888862 -7.88964844 27.13427734 C-10.27471924 28.11269718 -11.77069666 28.15923595 -14.328125 27.9765625 C-15.12734375 27.925 -15.9265625 27.8734375 -16.75 27.8203125 C-17.575 27.75585938 -18.4 27.69140625 -19.25 27.625 C-20.09046875 27.56828125 -20.9309375 27.5115625 -21.796875 27.453125 C-23.86529042 27.31209668 -25.9327646 27.15738212 -28 27 C-27.42578125 25.0234375 -27.42578125 25.0234375 -26 23 C-22.91796875 22.6015625 -22.91796875 22.6015625 -19.1875 22.625 C-13.37201692 22.56798784 -13.37201692 22.56798784 -8.6875 19.625 C-6.42955746 14.7746049 -6.10380259 10.3033688 -6 5 C-5.01 4.67 -4.02 4.34 -3 4 C-2.67 3.34 -2.34 2.68 -2 2 C-1.34 2 -0.68 2 0 2 C0 1.34 0 0.68 0 0 Z " fill="#02CEC9" transform="translate(465,832)"/>
<path d="M0 0 C4.95 0 9.9 0 15 0 C15 4.95 15 9.9 15 15 C10.05 15 5.1 15 0 15 C0 10.05 0 5.1 0 0 Z " fill="#00C0C1" transform="translate(512,385)"/>
<path d="M0 0 C4.95 0 9.9 0 15 0 C15 4.95 15 9.9 15 15 C10.05 15 5.1 15 0 15 C0 10.05 0 5.1 0 0 Z " fill="#00BEC0" transform="translate(566,189)"/>
<path d="M0 0 C5.28 0 10.56 0 16 0 C16 4.62 16 9.24 16 14 C10.72 14 5.44 14 0 14 C0 9.38 0 4.76 0 0 Z " fill="#00CACA" transform="translate(306,271)"/>
<path d="M0 0 C4.95 0 9.9 0 15 0 C15 4.62 15 9.24 15 14 C10.05 14 5.1 14 0 14 C0 9.38 0 4.76 0 0 Z " fill="#00C3C4" transform="translate(689,211)"/>
<path d="M0 0 C1.134375 0.020625 2.26875 0.04125 3.4375 0.0625 C4.13687202 1.4942616 4.82162718 2.93317032 5.5 4.375 C5.88285156 5.17550781 6.26570313 5.97601562 6.66015625 6.80078125 C7.4375 9.0625 7.4375 9.0625 6.4375 12.0625 C5.7775 11.4025 5.1175 10.7425 4.4375 10.0625 C3.7775 10.0625 3.1175 10.0625 2.4375 10.0625 C2.1075 11.0525 1.7775 12.0425 1.4375 13.0625 C0.7775 12.4025 0.1175 11.7425 -0.5625 11.0625 C-1.8825 15.0225 -3.2025 18.9825 -4.5625 23.0625 C-1.5925 23.0625 1.3775 23.0625 4.4375 23.0625 C4.4375 23.3925 4.4375 23.7225 4.4375 24.0625 C-6.12058656 24.4315205 -6.12058656 24.4315205 -10.5625 22.0625 C-10.8925 22.7225 -11.2225 23.3825 -11.5625 24.0625 C-10.98356794 18.54817209 -9.57430744 13.84038415 -7.5625 8.6875 C-7.28921875 7.96433594 -7.0159375 7.24117187 -6.734375 6.49609375 C-4.27678261 0.07503127 -4.27678261 0.07503127 0 0 Z " fill="#03DAD5" transform="translate(295.5625,821.9375)"/>
<path d="M0 0 C4.29 0 8.58 0 13 0 C13 4.95 13 9.9 13 15 C8.71 15 4.42 15 0 15 C0 10.05 0 5.1 0 0 Z " fill="#00CACA" transform="translate(555,519)"/>
<path d="M0 0 C8.58 0 17.16 0 26 0 C26 0.33 26 0.66 26 1 C17.75 1 9.5 1 1 1 C1 13.21 1 25.42 1 38 C2.36532549 36.86298403 2.36532549 36.86298403 2.09765625 33.83984375 C2.08605469 32.55207031 2.07445312 31.26429688 2.0625 29.9375 C2.04896484 28.00197266 2.04896484 28.00197266 2.03515625 26.02734375 C2.02355469 25.02832031 2.01195312 24.02929688 2 23 C2.33 23 2.66 23 3 23 C3 27.29 3 31.58 3 36 C3.99 36 4.98 36 6 36 C6 35.34 6 34.68 6 34 C8.59257669 33.13580777 10.34037707 32.82419068 13.01171875 32.68359375 C13.76904297 32.64169922 14.52636719 32.59980469 15.30664062 32.55664062 C16.09232422 32.51732422 16.87800781 32.47800781 17.6875 32.4375 C18.48478516 32.39431641 19.28207031 32.35113281 20.10351562 32.30664062 C22.06881447 32.20072632 24.03438496 32.09987449 26 32 C26 34.31 26 36.62 26 39 C17.42 39 8.84 39 0 39 C0 26.13 0 13.26 0 0 Z " fill="#02B6B4" transform="translate(480,822)"/>
<path d="M0 0 C8.25 0 16.5 0 25 0 C25 1.98 25 3.96 25 6 C18.73 6 12.46 6 6 6 C6 5.67 6 5.34 6 5 C11.94 5 17.88 5 24 5 C24 4.01 24 3.02 24 2 C16.74 2 9.48 2 2 2 C2.01160156 4.19140625 2.02320313 6.3828125 2.03515625 8.640625 C2.04296042 10.76871598 2.04902944 12.89680534 2.05493164 15.02490234 C2.05995288 16.50114661 2.06677116 17.97738592 2.07543945 19.45361328 C2.08760189 21.57846298 2.09325046 23.70324678 2.09765625 25.828125 C2.10289307 27.1059082 2.10812988 28.38369141 2.11352539 29.70019531 C2 33 2 33 1 37 C8.59 37 16.18 37 24 37 C24 35.68 24 34.36 24 33 C18.06 33 12.12 33 6 33 C6 32.67 6 32.34 6 32 C12.27 32 18.54 32 25 32 C25 33.98 25 35.96 25 38 C16.75 38 8.5 38 0 38 C0 25.46 0 12.92 0 0 Z " fill="#02E7E1" transform="translate(563,822)"/>
<path d="M0 0 C4.29 0 8.58 0 13 0 C13 4.62 13 9.24 13 14 C8.71 14 4.42 14 0 14 C0 9.38 0 4.76 0 0 Z " fill="#00BEC1" transform="translate(310,212)"/>
<path d="M0 0 C2.97 0 5.94 0 9 0 C9 6.6 9 13.2 9 20 C6.03 20 3.06 20 0 20 C0 13.4 0 6.8 0 0 Z " fill="#01D8D3" transform="translate(289,305)"/>
<path d="M0 0 C4.29 0 8.58 0 13 0 C13 4.29 13 8.58 13 13 C8.71 13 4.42 13 0 13 C0 8.71 0 4.42 0 0 Z " fill="#00C2C3" transform="translate(483,368)"/>
<path d="M0 0 C4.29 0 8.58 0 13 0 C13 4.29 13 8.58 13 13 C8.71 13 4.42 13 0 13 C0 8.71 0 4.42 0 0 Z " fill="#00C4C6" transform="translate(578,215)"/>
<path d="M0 0 C4.29 0 8.58 0 13 0 C13 4.29 13 8.58 13 13 C8.71 13 4.42 13 0 13 C0 8.71 0 4.42 0 0 Z " fill="#00C6C7" transform="translate(548,215)"/>
<path d="M0 0 C8.25 0 16.5 0 25 0 C25 1.98 25 3.96 25 6 C18.73 6 12.46 6 6 6 C6 5.67 6 5.34 6 5 C10.455 4.505 10.455 4.505 15 4 C10.71 3.67 6.42 3.34 2 3 C1.67 14.22 1.34 25.44 1 37 C8.92 37 16.84 37 25 37 C25 37.33 25 37.66 25 38 C16.75 38 8.5 38 0 38 C0 25.46 0 12.92 0 0 Z " fill="#01E9E4" transform="translate(377,822)"/>
<path d="M0 0 C0.99 0.495 0.99 0.495 2 1 C2.46806645 3.33744294 2.82669794 5.69739079 3.125 8.0625 C3.29257812 9.35285156 3.46015625 10.64320313 3.6328125 11.97265625 C3.75398438 12.97167969 3.87515625 13.97070312 4 15 C4.66 14.67 5.32 14.34 6 14 C6.33 21.59 6.66 29.18 7 37 C4.69 37 2.38 37 0 37 C0 24.79 0 12.58 0 0 Z " fill="#02E0DB" transform="translate(325,823)"/>
<path d="M0 0 C2.5 1.5625 2.5 1.5625 4 4 C4.0625 7.5625 4.0625 7.5625 3 11 C0.17708663 13.58094937 -1.30522028 14.01389559 -5.125 13.9375 C-8 13 -8 13 -9.875 11.25 C-11.24863504 8.50272993 -11.53062116 7.03212094 -11 4 C-8.00375133 -0.43444803 -5.14731601 -0.73533086 0 0 Z " fill="#00151F" transform="translate(614,151)"/>
<path d="M0 0 C2.64 0 5.28 0 8 0 C9.49204983 3.62354959 10.78376948 7.27529404 12 11 C12.37125 12.11375 12.7425 13.2275 13.125 14.375 C13.41375 15.24125 13.7025 16.1075 14 17 C13.34 17 12.68 17 12 17 C11.67 17.66 11.34 18.32 11 19 C10.01 18.01 9.02 17.02 8 16 C7.67 22.93 7.34 29.86 7 37 C6.67 37 6.34 37 6 37 C5.67 30.07 5.34 23.14 5 16 C4.34 16.33 3.68 16.66 3 17 C2.86722656 15.94039062 2.73445313 14.88078125 2.59765625 13.7890625 C2.41946125 12.40101721 2.2410654 11.01299769 2.0625 9.625 C1.97548828 8.92632813 1.88847656 8.22765625 1.79882812 7.5078125 C1.33681872 3.63216425 1.33681872 3.63216425 0 0 Z " fill="#02CDC9" transform="translate(325,822)"/>
<path d="M0 0 C1.9375 1.1875 1.9375 1.1875 3 3 C3.5 5.9375 3.5 5.9375 3 9 C0.9375 11.4375 0.9375 11.4375 -2 13 C-5.6875 12.9375 -5.6875 12.9375 -9 12 C-11.46943529 8.29584707 -11.46913089 6.37855495 -11 2 C-7.88297247 -1.98979524 -4.57145176 -1.16364227 0 0 Z " fill="#00151F" transform="translate(737,287)"/>
<path d="M0 0 C2 1.6875 2 1.6875 3 4 C2.92936148 7.46128747 2.64776603 9.28025997 0.3125 11.875 C-2.69253713 13.33690996 -4.69677822 13.42168789 -8 13 C-9.875 12 -9.875 12 -11 10 C-11.46553122 7.24129648 -11.50405131 4.75509864 -11 2 C-7.95184114 -2.0235697 -4.53799409 -1.23763475 0 0 Z " fill="#01141E" transform="translate(362,185)"/>
<path d="M0 0 C4.62 0 9.24 0 14 0 C14.42857143 11.71428571 14.42857143 11.71428571 11 17 C10.67 16.34 10.34 15.68 10 15 C10.33 14.34 10.66 13.68 11 13 C10.01 13.33 9.02 13.66 8 14 C7.34 13.67 6.68 13.34 6 13 C6.33 10.69 6.66 8.38 7 6 C4.69 6 2.38 6 0 6 C0 4.02 0 2.04 0 0 Z " fill="#03DFDA" transform="translate(255,839)"/>
<path d="M0 0 C8.3984375 -0.1953125 8.3984375 -0.1953125 11 0 C13 2 13 2 13.25 5.5 C13 9 13 9 11 11 C7.31975395 11.27629475 3.69505443 11.0859315 0 11 C0 7.37 0 3.74 0 0 Z " fill="#010E18" transform="translate(689,829)"/>
<path d="M0 0 C8.3984375 -0.1953125 8.3984375 -0.1953125 11 0 C13 2 13 2 13.3125 5.5 C13.1578125 7.2325 13.1578125 7.2325 13 9 C8.61501596 11.92332269 5.2225328 11.1356502 0 11 C0 7.37 0 3.74 0 0 Z " fill="#000F19" transform="translate(768,829)"/>
<path d="M0 0 C3.96 0 7.92 0 12 0 C12 3.63 12 7.26 12 11 C8.04 11 4.08 11 0 11 C0 7.37 0 3.74 0 0 Z " fill="#00C6C5" transform="translate(632,237)"/>
<path d="M0 0 C3.5625 0.3125 3.5625 0.3125 5.5625 1.375 C7.19628851 4.54046524 6.41517564 6.96270286 5.5625 10.3125 C2.32996204 12.46752531 1.31099077 12.78106135 -2.4375 12.3125 C-4.25 11.25 -4.25 11.25 -5.4375 9.3125 C-5.75 5.75 -5.75 5.75 -5.4375 2.3125 C-3.4375 0.3125 -3.4375 0.3125 0 0 Z " fill="#01131C" transform="translate(434.4375,570.6875)"/>
<path d="M0 0 C3.63 0 7.26 0 11 0 C11 3.63 11 7.26 11 11 C7.37 11 3.74 11 0 11 C0 7.37 0 3.74 0 0 Z " fill="#00D7D4" transform="translate(470,207)"/>
<path d="M0 0 C0.96164063 -0.00515625 1.92328125 -0.0103125 2.9140625 -0.015625 C5.375 0.25 5.375 0.25 7.375 2.25 C6.385 2.25 5.395 2.25 4.375 2.25 C4.375 3.24 4.375 4.23 4.375 5.25 C3.71113281 5.33636719 3.04726562 5.42273438 2.36328125 5.51171875 C-3.62419437 6.46447035 -6.53170762 7.53651181 -10.625 12.25 C-11.615 12.25 -12.605 12.25 -13.625 12.25 C-14.4375 10.625 -14.4375 10.625 -14.625 8.25 C-10.50758927 2.36798467 -7.37174422 -0.03973986 0 0 Z " fill="#03DAD5" transform="translate(252.625,821.75)"/>
<path d="M0 0 C3.3 0 6.6 0 10 0 C10 3.63 10 7.26 10 11 C6.7 11 3.4 11 0 11 C0 7.37 0 3.74 0 0 Z " fill="#00CFCE" transform="translate(278,352)"/>
<path d="M0 0 C3.63 0 7.26 0 11 0 C11 3.3 11 6.6 11 10 C7.37 10 3.74 10 0 10 C0 6.7 0 3.4 0 0 Z " fill="#00CAC8" transform="translate(717,239)"/>
<path d="M0 0 C-0.99 0.495 -0.99 0.495 -2 1 C-2 1.66 -2 2.32 -2 3 C-0.68 3.66 0.64 4.32 2 5 C0.906875 5.0825 -0.18625 5.165 -1.3125 5.25 C-4.95400639 5.63248879 -4.95400639 5.63248879 -6.6875 7.71875 C-8.20536955 10.35695184 -8.48865048 12.22748731 -8.6875 15.25 C-8.75324219 16.14203125 -8.81898438 17.0340625 -8.88671875 17.953125 C-8.92410156 18.62859375 -8.96148438 19.3040625 -9 20 C-9.33 20 -9.66 20 -10 20 C-10 17.69 -10 15.38 -10 13 C-10.66 13 -11.32 13 -12 13 C-12.33 13.99 -12.66 14.98 -13 16 C-14.125 14.25 -14.125 14.25 -15 12 C-14.125 10.0625 -14.125 10.0625 -13 8 C-13.0309375 6.700625 -13.0309375 6.700625 -13.0625 5.375 C-13.041875 4.59125 -13.02125 3.8075 -13 3 C-8.54370064 0.02913376 -5.32064558 -0.12092376 0 0 Z " fill="#03D3CE" transform="translate(652,824)"/>
<path d="M0 0 C0 10.56 0 21.12 0 32 C-0.66 31.67 -1.32 31.34 -2 31 C-2 21.43 -2 11.86 -2 2 C-10.58 2 -19.16 2 -28 2 C-28 1.67 -28 1.34 -28 1 C-18.60399417 0.11268748 -9.4876078 0 0 0 Z " fill="#00DDD9" transform="translate(559,688)"/>
<path d="M0 0 C2.4375 0.75 2.4375 0.75 4.4375 2.75 C4.6875 5.75 4.6875 5.75 4.4375 8.75 C2.4375 10.75 2.4375 10.75 -1.0625 11.0625 C-2.795 10.9078125 -2.795 10.9078125 -4.5625 10.75 C-6.5625 7.75 -6.5625 7.75 -6.375 4.6875 C-5.32105756 0.87709272 -4.04091296 -0.39423541 0 0 Z " fill="#01131B" transform="translate(464.5625,529.25)"/>
<path d="M0 0 C3.3 0 6.6 0 10 0 C10 3.3 10 6.6 10 10 C6.7 10 3.4 10 0 10 C0 6.7 0 3.4 0 0 Z " fill="#00DBD8" transform="translate(602,501)"/>
<path d="M0 0 C2.97 0 5.94 0 9 0 C9 3.63 9 7.26 9 11 C6.03 11 3.06 11 0 11 C0 7.37 0 3.74 0 0 Z " fill="#00D2D0" transform="translate(749,337)"/>
<path d="M0 0 C0.66 0.66 1.32 1.32 2 2 C4.89967757 2.30675232 7.71783178 2.51173371 10.625 2.625 C11.42679687 2.66367187 12.22859375 2.70234375 13.0546875 2.7421875 C15.03607556 2.83653931 17.01800645 2.91936215 19 3 C19 3.33 19 3.66 19 4 C13.72 4 8.44 4 3 4 C2.01 6.97 1.02 9.94 0 13 C-2.31 13 -4.62 13 -7 13 C-6.60446947 11.3489597 -6.18286103 9.7041485 -5.75 8.0625 C-5.51796875 7.14597656 -5.2859375 6.22945312 -5.046875 5.28515625 C-4 3 -4 3 -1.890625 2.18359375 C-1.26671875 2.12300781 -0.6428125 2.06242188 0 2 C0 1.34 0 0.68 0 0 Z " fill="#02E3DE" transform="translate(285,847)"/>
<path d="M0 0 C4.95 0 9.9 0 15 0 C15 4.95 15 9.9 15 15 C10.05 15 5.1 15 0 15 C0 10.05 0 5.1 0 0 Z M2 2 C2 5.63 2 9.26 2 13 C5.96 13 9.92 13 14 13 C14 9.37 14 5.74 14 2 C10.04 2 6.08 2 2 2 Z " fill="#00CACB" transform="translate(512,385)"/>
<path d="M0 0 C0.33 0 0.66 0 1 0 C1 2.97 1 5.94 1 9 C6.61 9 12.22 9 18 9 C18 10.98 18 12.96 18 15 C12.39 15 6.78 15 1 15 C1.66 14.01 2.32 13.02 3 12 C2.01 11.34 1.02 10.68 0 10 C-0.29296875 7.6171875 -0.29296875 7.6171875 -0.1875 4.875 C-0.16042969 3.96492187 -0.13335937 3.05484375 -0.10546875 2.1171875 C-0.07066406 1.41851563 -0.03585937 0.71984375 0 0 Z " fill="#04E8E1" transform="translate(382,829)"/>
<path d="M0 0 C3.3 0 6.6 0 10 0 C10 2.97 10 5.94 10 9 C6.7 9 3.4 9 0 9 C0 6.03 0 3.06 0 0 Z " fill="#00D0CE" transform="translate(618,539)"/>
<path d="M0 0 C2.97 0 5.94 0 9 0 C9 3.3 9 6.6 9 10 C6.03 10 3.06 10 0 10 C0 6.7 0 3.4 0 0 Z " fill="#00D7D5" transform="translate(738,390)"/>
<path d="M0 0 C5.28 0 10.56 0 16 0 C16 5.28 16 10.56 16 16 C10.72 16 5.44 16 0 16 C0 10.72 0 5.44 0 0 Z M2 1 C2 5.29 2 9.58 2 14 C6.29 14 10.58 14 15 14 C15.0309375 11.0609375 15.0309375 11.0609375 15.0625 8.0625 C15.07410156 6.96035156 15.08570313 5.85820312 15.09765625 4.72265625 C15.31262571 2.08552366 15.31262571 2.08552366 14 1 C11.98035801 0.92755947 9.95832876 0.91622812 7.9375 0.9375 C4.9984375 0.9684375 4.9984375 0.9684375 2 1 Z " fill="#00CFD0" transform="translate(289,247)"/>
<path d="M0 0 C15.17847394 -0.20824126 15.17847394 -0.20824126 21 1 C21.66 1.99 22.32 2.98 23 4 C17.06 4 11.12 4 5 4 C5 6.97 5 9.94 5 13 C4.67 13 4.34 13 4 13 C3.67 10.69 3.34 8.38 3 6 C1.68 6.99 0.36 7.98 -1 9 C-1.125 2.25 -1.125 2.25 0 0 Z " fill="#03C5C1" transform="translate(379,825)"/>
<path d="M0 0 C4.29 0 8.58 0 13 0 C13 4.62 13 9.24 13 14 C8.71 14 4.42 14 0 14 C0 9.38 0 4.76 0 0 Z M1 2 C1 5.3 1 8.6 1 12 C4.3 12 7.6 12 11 12 C11 8.7 11 5.4 11 2 C7.7 2 4.4 2 1 2 Z " fill="#00D1D2" transform="translate(310,212)"/>
<path d="M0 0 C4.14581887 -0.02886751 8.29161216 -0.04675327 12.4375 -0.0625 C14.21350586 -0.07506836 14.21350586 -0.07506836 16.02539062 -0.08789062 C17.15009766 -0.09111328 18.27480469 -0.09433594 19.43359375 -0.09765625 C20.47572021 -0.10289307 21.51784668 -0.10812988 22.59155273 -0.11352539 C25 0 25 0 26 1 C26.0979057 2.49738124 26.12974864 3.99942892 26.125 5.5 C26.12886719 6.72203125 26.12886719 6.72203125 26.1328125 7.96875 C26 10 26 10 25 11 C23.14630389 11.08737645 21.28932459 11.10698153 19.43359375 11.09765625 C18.30888672 11.09443359 17.18417969 11.09121094 16.02539062 11.08789062 C14.84138672 11.07951172 13.65738281 11.07113281 12.4375 11.0625 C11.24962891 11.05798828 10.06175781 11.05347656 8.83789062 11.04882812 C5.89187774 11.03699675 2.94596319 11.02051287 0 11 C0 10.67 0 10.34 0 10 C8.02124152 9.28586721 15.94641862 8.85474503 24 9 C24 6.36 24 3.72 24 1 C16.08 1 8.16 1 0 1 C0 0.67 0 0.34 0 0 Z " fill="#01C3C1" transform="translate(462,334)"/>
<path d="M0 0 C0.80179688 0.00451172 1.60359375 0.00902344 2.4296875 0.01367188 C4.41149006 0.02546832 6.39325433 0.04340395 8.375 0.0625 C8.375 1.3825 8.375 2.7025 8.375 4.0625 C0.785 4.0625 -6.805 4.0625 -14.625 4.0625 C-13.305 3.7325 -11.985 3.4025 -10.625 3.0625 C-10.625 2.4025 -10.625 1.7425 -10.625 1.0625 C-7.31505287 -0.59247356 -3.63377 -0.03834335 0 0 Z " fill="#03CFCA" transform="translate(737.625,854.9375)"/>
<path d="M0 0 C0.33 0 0.66 0 1 0 C1.33 3.96 1.66 7.92 2 12 C3.9490625 11.814375 3.9490625 11.814375 5.9375 11.625 C6.66839844 11.55539062 7.39929688 11.48578125 8.15234375 11.4140625 C9.06693359 11.20910156 9.06693359 11.20910156 10 11 C10.33 10.34 10.66 9.68 11 9 C15.29 9 19.58 9 24 9 C24 10.32 24 11.64 24 13 C16.08 13 8.16 13 0 13 C0 8.71 0 4.42 0 0 Z " fill="#03CFCA" transform="translate(378,846)"/>
<path d="M0 0 C1.32 0.66 2.64 1.32 4 2 C3.690625 2.845625 3.38125 3.69125 3.0625 4.5625 C1.89214245 7.98607141 1.89214245 7.98607141 1.5625 11.625 C0.98856958 15.06858253 0.43859954 16.56140046 -2 19 C-2.99 19.33 -3.98 19.66 -5 20 C-6.02826931 16.86332092 -5.99386675 15.16815258 -4.78515625 12.109375 C-4.37426758 11.04589844 -4.37426758 11.04589844 -3.95507812 9.9609375 C-3.66052734 9.23132813 -3.36597656 8.50171875 -3.0625 7.75 C-2.77181641 7.00492188 -2.48113281 6.25984375 -2.18164062 5.4921875 C-1.46426278 3.65758186 -0.73342561 1.82824935 0 0 Z " fill="#03DAD4" transform="translate(291,823)"/>
<path d="M0 0 C2.18614424 2.18614424 2.68256535 3.53879949 3.625 6.4375 C3.88539063 7.21996094 4.14578125 8.00242187 4.4140625 8.80859375 C5 11 5 11 5 14 C2.03 14 -0.94 14 -4 14 C-3.36843005 8.94744036 -1.86540627 4.70406799 0 0 Z " fill="#011E25" transform="translate(295,831)"/>
<path d="M0 0 C3.77518545 1.25839515 4.19759138 2.55903808 6 6 C6.33 6.99 6.66 7.98 7 9 C9.49229785 13.61247512 9.49229785 13.61247512 12.50390625 17.87890625 C14.23543067 20.33378291 15.09862613 22.6591086 16.0625 25.5 C17.19167883 28.80137425 18.36323719 31.91561141 20 35 C19.01 35.495 19.01 35.495 18 36 C12 24 6 12 0 0 Z " fill="#011C22" transform="translate(217,626)"/>
<path d="M0 0 C1.48831242 0.00667405 2.97660807 0.01863442 4.46484375 0.03515625 C5.22345703 0.03966797 5.98207031 0.04417969 6.76367188 0.04882812 C8.64326246 0.06064945 10.52281274 0.07858547 12.40234375 0.09765625 C12.40234375 3.39765625 12.40234375 6.69765625 12.40234375 10.09765625 C12.07234375 10.09765625 11.74234375 10.09765625 11.40234375 10.09765625 C11.40234375 7.12765625 11.40234375 4.15765625 11.40234375 1.09765625 C7.11234375 1.09765625 2.82234375 1.09765625 -1.59765625 1.09765625 C-1.59765625 6.04765625 -1.59765625 10.99765625 -1.59765625 16.09765625 C-2.58765625 16.42765625 -3.57765625 16.75765625 -4.59765625 17.09765625 C-4.62450304 14.45175611 -4.64441982 11.80612529 -4.66015625 9.16015625 C-4.66853516 8.40541016 -4.67691406 7.65066406 -4.68554688 6.87304688 C-4.69418066 4.94771312 -4.64989958 3.02230044 -4.59765625 1.09765625 C-3.59765625 0.09765625 -3.59765625 0.09765625 0 0 Z " fill="#001920" transform="translate(556.59765625,517.90234375)"/>
<path d="M0 0 C0.33 0 0.66 0 1 0 C1.22333124 7.50990673 1.42482536 15.02012925 1.59840012 22.53134632 C1.6796852 26.01909615 1.76850214 29.50631534 1.87451172 32.9934082 C1.99603837 37.00176886 2.08483657 41.0102724 2.171875 45.01953125 C2.21439392 46.27272659 2.25691284 47.52592194 2.30072021 48.8170929 C2.32104309 49.97806992 2.34136597 51.13904694 2.36230469 52.33520508 C2.38895203 53.35890701 2.41559937 54.38260895 2.4430542 55.43733215 C2 58 2 58 -0.02264404 59.85404968 C-0.67517151 60.23221329 -1.32769897 60.61037689 -2 61 C-2 57 -2 57 -1 56 C-0.8768483 54.25161165 -0.82212189 52.49835496 -0.79467773 50.74584961 C-0.77473251 49.62476303 -0.75478729 48.50367645 -0.73423767 47.34861755 C-0.71752518 46.1288472 -0.70081268 44.90907684 -0.68359375 43.65234375 C-0.6524221 41.7899984 -0.6524221 41.7899984 -0.62062073 39.89002991 C-0.56616391 36.58400877 -0.51595795 33.27797755 -0.46777344 29.97186279 C-0.41760144 26.60032509 -0.36189299 23.22887947 -0.30664062 19.85742188 C-0.19929962 13.23835449 -0.09755802 6.6192184 0 0 Z " fill="#001C29" transform="translate(411,151)"/>
<path d="M0 0 C4.29 0 8.58 0 13 0 C13 4.29 13 8.58 13 13 C8.71 13 4.42 13 0 13 C0 8.71 0 4.42 0 0 Z M2 1 C2 4.3 2 7.6 2 11 C5.3 11 8.6 11 12 11 C12 7.7 12 4.4 12 1 C8.7 1 5.4 1 2 1 Z " fill="#00D5D5" transform="translate(483,368)"/>
<path d="M0 0 C0.33 0 0.66 0 1 0 C1.01981934 0.7206665 1.03963867 1.44133301 1.06005859 2.18383789 C1.1558366 5.47706672 1.26530117 8.76970668 1.375 12.0625 C1.4059375 13.19623047 1.436875 14.32996094 1.46875 15.49804688 C1.67167768 21.29839647 1.88478427 26.56087383 4 32 C5.97343865 33.94321211 5.97343865 33.94321211 8 35 C8 32.36 8 29.72 8 27 C8.33 27 8.66 27 9 27 C9.33 31.29 9.66 35.58 10 40 C9.01 39.34 8.02 38.68 7 38 C7 37.34 7 36.68 7 36 C6.401875 35.731875 5.80375 35.46375 5.1875 35.1875 C2.8388485 33.91251776 1.59060941 33.15051292 0 31 C-0.34057617 27.8137207 -0.34057617 27.8137207 -0.29296875 23.92578125 C-0.28872391 23.2419487 -0.28447906 22.55811615 -0.28010559 21.8535614 C-0.26333353 19.67280439 -0.22568657 17.49297691 -0.1875 15.3125 C-0.17245114 13.83269565 -0.15876308 12.3528768 -0.14648438 10.87304688 C-0.11343569 7.24839664 -0.06166446 3.62428906 0 0 Z " fill="#00A8A9" transform="translate(687,260)"/>
<path d="M0 0 C0.33 0 0.66 0 1 0 C1.33725065 3.04127817 1.66992332 6.08294191 2 9.125 C2.09539062 9.9809375 2.19078125 10.836875 2.2890625 11.71875 C2.76845209 16.17022474 3.11765458 20.51441925 3 25 C2.01 25 1.02 25 0 25 C-3.07692308 6.15384615 -3.07692308 6.15384615 0 0 Z " fill="#01C8C6" transform="translate(283,480)"/>
<path d="M0 0 C7.92 0 15.84 0 24 0 C24 1.32 24 2.64 24 4 C17.73 4 11.46 4 5 4 C5 3.67 5 3.34 5 3 C9.455 2.505 9.455 2.505 14 2 C9.71 1.67 5.42 1.34 1 1 C0.67 1.66 0.34 2.32 0 3 C0 2.01 0 1.02 0 0 Z " fill="#02DBD6" transform="translate(378,824)"/>
<path d="M0 0 C2 2 2 2 2.22705078 4.06298828 C2.21657715 4.89040527 2.20610352 5.71782227 2.1953125 6.5703125 C2.18886719 7.46621094 2.18242188 8.36210937 2.17578125 9.28515625 C2.15902344 10.22230469 2.14226563 11.15945313 2.125 12.125 C2.11597656 13.06988281 2.10695313 14.01476562 2.09765625 14.98828125 C2.07404522 17.32577292 2.04111516 19.66276123 2 22 C1.01 22 0.02 22 -1 22 C-1.02903577 18.89585298 -1.0468107 15.79174091 -1.0625 12.6875 C-1.07087891 11.80642578 -1.07925781 10.92535156 -1.08789062 10.01757812 C-1.09111328 9.17001953 -1.09433594 8.32246094 -1.09765625 7.44921875 C-1.10289307 6.66893311 -1.10812988 5.88864746 -1.11352539 5.0847168 C-1 3 -1 3 0 0 Z " fill="#01C9C7" transform="translate(735,477)"/>
<path d="M0 0 C0.66 0.33 1.32 0.66 2 1 C2 3.31 2 5.62 2 8 C1.01 7.67 0.02 7.34 -1 7 C-1 8.98 -1 10.96 -1 13 C-1.99 13 -2.98 13 -4 13 C-4 9.37 -4 5.74 -4 2 C-2.68 1.34 -1.36 0.68 0 0 Z " fill="#03D0CC" transform="translate(240,834)"/>
<path d="M0 0 C-1.10794922 0.49306641 -1.10794922 0.49306641 -2.23828125 0.99609375 C-9.30655659 4.31018981 -14.92696729 8.10585152 -20.72265625 13.33984375 C-21.47417969 13.88769531 -22.22570312 14.43554688 -23 15 C-23.99 14.67 -24.98 14.34 -26 14 C-8.36455696 -3.5443038 -8.36455696 -3.5443038 0 0 Z " fill="#02E3DE" transform="translate(365,286)"/>
<path d="M0 0 C3.63 0 7.26 0 11 0 C11 3.3 11 6.6 11 10 C7.37 10 3.74 10 0 10 C0 6.7 0 3.4 0 0 Z M2 1 C2 3.31 2 5.62 2 8 C4.64 8 7.28 8 10 8 C10 5.69 10 3.38 10 1 C7.36 1 4.72 1 2 1 Z " fill="#01DEDB" transform="translate(717,239)"/>
<path d="M0 0 C1.65 0 3.3 0 5 0 C5.0270043 1.45823212 5.04639787 2.91660675 5.0625 4.375 C5.07410156 5.18710937 5.08570313 5.99921875 5.09765625 6.8359375 C5 9 5 9 4 11 C2.68 11 1.36 11 0 11 C0 7.37 0 3.74 0 0 Z " fill="#00D1CF" transform="translate(307,483)"/>
<path d="M0 0 C3.5682233 5.35233495 4.32665309 11.63026469 4 18 C3.34 18 2.68 18 2 18 C1.67 17.34 1.34 16.68 1 16 C0.34 16.66 -0.32 17.32 -1 18 C-2.4783226 15.04335481 -2.06032783 12.25770263 -2 9 C-1.34 9 -0.68 9 0 9 C0 6.03 0 3.06 0 0 Z " fill="#00D6D4" transform="translate(706,453)"/>
<path d="M0 0 C1.5 1.0625 1.5 1.0625 3 3 C3.45463466 7.81912736 2.75135352 11.5121566 1 16 C0.01 16 -0.98 16 -2 16 C-1.85764543 14.27054347 -1.71095618 12.54144346 -1.5625 10.8125 C-1.48128906 9.84957031 -1.40007812 8.88664062 -1.31640625 7.89453125 C-1.02333849 5.21350398 -0.57296246 2.6337014 0 0 Z " fill="#01C4C3" transform="translate(310,459)"/>
<path d="M0 0 C0.99 0.33 1.98 0.66 3 1 C1.68 7.6 0.36 14.2 -1 21 C-1.66 20.67 -2.32 20.34 -3 20 C-2.835 19.319375 -2.67 18.63875 -2.5 17.9375 C-1.76159437 13.59936694 -1.61604694 9.53581223 -2.6875 5.25 C-2.790625 4.5075 -2.89375 3.765 -3 3 C-1.5625 1.1875 -1.5625 1.1875 0 0 Z " fill="#00D4D2" transform="translate(314,454)"/>
<path d="M0 0 C2.31 0 4.62 0 7 0 C7 2.31 7 4.62 7 7 C4.69 7 2.38 7 0 7 C0 4.69 0 2.38 0 0 Z " fill="#01C8C6" transform="translate(603,503)"/>
<path d="M0 0 C0 0.33 0 0.66 0 1 C-2.97851562 1.5859375 -2.97851562 1.5859375 -5.95703125 2.171875 C-8.70192905 3.28452956 -9.54152991 4.4303146 -11 7 C-11.78628026 10.03268887 -11.78628026 10.03268887 -12.1875 13.25 C-12.34605469 14.32765625 -12.50460938 15.4053125 -12.66796875 16.515625 C-12.77753906 17.33546875 -12.88710937 18.1553125 -13 19 C-13.33 19 -13.66 19 -14 19 C-14.06058594 18.22914063 -14.12117187 17.45828125 -14.18359375 16.6640625 C-14.26738281 15.66117188 -14.35117188 14.65828125 -14.4375 13.625 C-14.51871094 12.62726562 -14.59992188 11.62953125 -14.68359375 10.6015625 C-14.84965626 8.02072387 -14.84965626 8.02072387 -16 6 C-15.01 6 -14.02 6 -13 6 C-11.62131719 4.37064759 -10.28725907 2.70250393 -9 1 C-6.04335481 -0.4783226 -3.25770263 -0.06032783 0 0 Z M-18 4 C-17.34 5.32 -16.68 6.64 -16 8 C-16.99 8.33 -17.98 8.66 -19 9 C-18.67 7.35 -18.34 5.7 -18 4 Z " fill="#03E9E3" transform="translate(256,827)"/>
<path d="M0 0 C1.98 0 3.96 0 6 0 C6 2.64 6 5.28 6 8 C4.02 8 2.04 8 0 8 C0 5.36 0 2.72 0 0 Z " fill="#00C4C2" transform="translate(280,354)"/>
<path d="M0 0 C2.97 0.495 2.97 0.495 6 1 C5.71758359 2.46015291 5.42373386 3.91809793 5.125 5.375 C4.96257812 6.18710937 4.80015625 6.99921875 4.6328125 7.8359375 C4 10 4 10 2 12 C2 10.35 2 8.7 2 7 C1.34 6.67 0.68 6.34 0 6 C-0.33 6.66 -0.66 7.32 -1 8 C-0.67 5.36 -0.34 2.72 0 0 Z " fill="#00D0CF" transform="translate(324,406)"/>
<path d="M0 0 C0.66 0.33 1.32 0.66 2 1 C2 6.61 2 12.22 2 18 C1.67 18 1.34 18 1 18 C1 14.7 1 11.4 1 8 C0.01 8 -0.98 8 -2 8 C-2.33 9.32 -2.66 10.64 -3 12 C-3.88336837 9.5332355 -4.1312406 8.36140628 -3.22265625 5.859375 C-2.83980469 5.16328125 -2.45695312 4.4671875 -2.0625 3.75 C-1.68222656 3.04359375 -1.30195313 2.3371875 -0.91015625 1.609375 C-0.60980469 1.07828125 -0.30945313 0.5471875 0 0 Z " fill="#001821" transform="translate(351,841)"/>
<path d="M0 0 C1.15957207 3.47871621 0.77456651 4.34219645 -0.4375 7.6875 C-0.72496094 8.49574219 -1.01242187 9.30398438 -1.30859375 10.13671875 C-1.53675781 10.75160156 -1.76492188 11.36648438 -2 12 C0.97 12 3.94 12 7 12 C7 12.33 7 12.66 7 13 C-3.55808656 13.3690205 -3.55808656 13.3690205 -8 11 C-8.33 11.66 -8.66 12.32 -9 13 C-8.67 11.35 -8.34 9.7 -8 8 C-7.34 8.33 -6.68 8.66 -6 9 C-5.34 8.34 -4.68 7.68 -4 7 C-3.34 6.34 -2.68 5.68 -2 5 C-1.29289322 3.35008418 -0.62056011 1.68437744 0 0 Z " fill="#04E7E1" transform="translate(293,833)"/>
<path d="M0 0 C1.98 0 3.96 0 6 0 C6 2.31 6 4.62 6 7 C4.02 7 2.04 7 0 7 C0 4.69 0 2.38 0 0 Z " fill="#00C7C5" transform="translate(739,392)"/>
<path d="M0 0 C3.1875 1.5 3.1875 1.5 5 3 C1.94536813 4.52731594 -0.66338528 3.49228742 -4 3 C-7.85915313 2.86918125 -11.30372717 2.8171927 -15 4 C-15 3.34 -15 2.68 -15 2 C-10.23544638 -0.81388932 -5.38455147 -0.54960658 0 0 Z " fill="#04E0DB" transform="translate(657,822)"/>
<path d="M0 0 C0.40729228 2.32156597 0.74438677 4.6568787 1 7 C-0.98 7 -2.96 7 -5 7 C-5.33 4.69 -5.66 2.38 -6 0 C-2.25 -1.125 -2.25 -1.125 0 0 Z " fill="#01CACA" transform="translate(701,428)"/>
<path d="M0 0 C5.28 0 10.56 0 16 0 C16 0.99 16 1.98 16 3 C10.39 3 4.78 3 -1 3 C-0.67 2.01 -0.34 1.02 0 0 Z " fill="#03CDC8" transform="translate(489,824)"/>
<path d="M0 0 C2.475 0.99 2.475 0.99 5 2 C4.690625 2.721875 4.38125 3.44375 4.0625 4.1875 C3.07439461 6.80307309 2.4712246 9.25118982 2 12 C1.34 11.01 0.68 10.02 0 9 C-1.32381517 7.32576317 -2.65576661 5.65788785 -4 4 C-2.68 3.34 -1.36 2.68 0 2 C0 1.34 0 0.68 0 0 Z " fill="#02E1DB" transform="translate(781,824)"/>
<path d="M0 0 C2.66735273 2.48952921 4.55746343 4.63408134 6 8 C2.95613276 8.08226668 0.92824652 7.97608217 -2 7 C-2.125 4.625 -2.125 4.625 -2 2 C-1.34 1.34 -0.68 0.68 0 0 Z " fill="#03CDC9" transform="translate(782,851)"/>
<path d="M0 0 C2.55337724 2.55337724 2.43261395 3.95274418 2.75 7.5 C2.84796875 8.4796875 2.9459375 9.459375 3.046875 10.46875 C3 13 3 13 1 15 C0.01 14.67 -0.98 14.34 -2 14 C-1.67 13.34 -1.34 12.68 -1 12 C-0.77141886 9.9625237 -0.58975722 7.91959697 -0.4375 5.875 C-0.35371094 4.77929688 -0.26992188 3.68359375 -0.18359375 2.5546875 C-0.12300781 1.71164062 -0.06242188 0.86859375 0 0 Z " fill="#011E25" transform="translate(642,331)"/>
<path d="M0 0 C0 3.69840628 -0.82866944 4.31415433 -3.25 7 C-4.15492188 8.0209375 -4.15492188 8.0209375 -5.078125 9.0625 C-6.93766612 10.93715934 -8.84794211 12.47641919 -11 14 C-11.66 13.67 -12.32 13.34 -13 13 C-8.71 8.71 -4.42 4.42 0 0 Z " fill="#01D9D5" transform="translate(482,463)"/>
<path d="M0 0 C1.32 0.66 2.64 1.32 4 2 C3.690625 2.86625 3.38125 3.7325 3.0625 4.625 C2.07508101 7.76150738 1.46418941 10.75067413 1 14 C0.01 13.67 -0.98 13.34 -2 13 C-1.34 8.71 -0.68 4.42 0 0 Z " fill="#04D1CC" transform="translate(291,823)"/>
<path d="M0 0 C1.46726798 3.81489674 0.43336419 6.29011622 -1 10 C-1.33 9.34 -1.66 8.68 -2 8 C-3.98 8.99 -3.98 8.99 -6 10 C-6 8.35 -6 6.7 -6 5 C-4.02 4.34 -2.04 3.68 0 3 C0 2.01 0 1.02 0 0 Z " fill="#00D6D4" transform="translate(324,422)"/>
<path d="M0 0 C-2 3 -2 3 -4.09375 3.58203125 C-5.28484375 3.69611328 -5.28484375 3.69611328 -6.5 3.8125 C-7.2940625 3.90144531 -8.088125 3.99039062 -8.90625 4.08203125 C-11 4 -11 4 -13 2 C-11.36286898 0.36286898 -9.2920301 0.32922278 -7.0625 -0.125 C-6.16660156 -0.31320312 -5.27070312 -0.50140625 -4.34765625 -0.6953125 C-2 -1 -2 -1 0 0 Z " fill="#00C2C3" transform="translate(636,411)"/>
<path d="M0 0 C0.66 0.33 1.32 0.66 2 1 C2.63019694 9.19256018 2.63019694 9.19256018 0 12.5625 C-0.99 13.2740625 -0.99 13.2740625 -2 14 C-3.49341969 11.01316063 -2.40648676 9.04839022 -1.5625 5.875 C-1.27503906 4.77929688 -0.98757813 3.68359375 -0.69140625 2.5546875 C-0.46324219 1.71164062 -0.23507812 0.86859375 0 0 Z " fill="#01CCC8" transform="translate(672,364)"/>
<path d="M0 0 C0.33 0.99 0.66 1.98 1 3 C1.99 2.67 2.98 2.34 4 2 C4 4.31 4 6.62 4 9 C1.83125748 8.49396008 0.00032373 8.00016187 -2 7 C-1.125 1.125 -1.125 1.125 0 0 Z " fill="#00C9C7" transform="translate(707,468)"/>
<path d="M0 0 C4.29 0 8.58 0 13 0 C13 0.99 13 1.98 13 3 C8.71 3 4.42 3 0 3 C0 2.01 0 1.02 0 0 Z " fill="#00BFBD" transform="translate(681,545)"/>
<path d="M0 0 C1.0625 1.875 1.0625 1.875 2 4 C0.89131683 6.21736634 -0.49440461 8.03617993 -2 10 C-4.125 5.375 -4.125 5.375 -3 2 C-2.01 1.34 -1.02 0.68 0 0 Z " fill="#01BEBF" transform="translate(319,436)"/>
<path d="M0 0 C0.66 0 1.32 0 2 0 C2 1.32 2 2.64 2 4 C-1.63 4 -5.26 4 -9 4 C-9 3.34 -9 2.68 -9 2 C-6.03 2 -3.06 2 0 2 C0 1.34 0 0.68 0 0 Z " fill="#012D33" transform="translate(790,858)"/>
<path d="M0 0 C1.65 0 3.3 0 5 0 C5.33 1.32 5.66 2.64 6 4 C3.69 4 1.38 4 -1 4 C-0.67 2.68 -0.34 1.36 0 0 Z " fill="#05D3CD" transform="translate(251,823)"/>
<path d="M0 0 C0.99 0.33 1.98 0.66 3 1 C1.02 1.99 1.02 1.99 -1 3 C-0.34 5.97 0.32 8.94 1 12 C-2.87533393 8.730187 -2.87533393 8.730187 -3.4375 5.4375 C-2.93493775 2.63751034 -2.19653565 1.73892405 0 0 Z " fill="#010E14" transform="translate(606,152)"/>
<path d="M0 0 C1.125 3.75 1.125 3.75 0 6 C-1.98 6 -3.96 6 -6 6 C-4.95125002 3.37812506 -4.35068687 2.20628639 -1.875 0.75 C-1.25625 0.5025 -0.6375 0.255 0 0 Z " fill="#03C8C4" transform="translate(284,853)"/>
<path d="M0 0 C0 3 0 3 -1.4375 4.75 C-5.33227626 6.64989086 -8.83440326 5.73877036 -13 5 C-13 4.67 -13 4.34 -13 4 C-11.84371094 3.81824219 -11.84371094 3.81824219 -10.6640625 3.6328125 C-9.66117188 3.46523438 -8.65828125 3.29765625 -7.625 3.125 C-6.12839844 2.88136719 -6.12839844 2.88136719 -4.6015625 2.6328125 C-1.8574885 2.2041198 -1.8574885 2.2041198 0 0 Z M-7 6 C-4 7 -4 7 -4 7 Z " fill="#03E7E2" transform="translate(702,837)"/>
<path d="M0 0 C2.67927341 4.01891012 2.15601248 6.24161923 2 11 C1.67 11 1.34 11 1 11 C1 8.69 1 6.38 1 4 C0.34 4 -0.32 4 -1 4 C-1.33 4.99 -1.66 5.98 -2 7 C-2.66 6.01 -3.32 5.02 -4 4 C-2.68 2.68 -1.36 1.36 0 0 Z " fill="#04C0BD" transform="translate(641,833)"/>
<path d="M0 0 C0.66 0.33 1.32 0.66 2 1 C1.51789062 1.47050781 1.03578125 1.94101562 0.5390625 2.42578125 C-0.40839844 3.35970703 -0.40839844 3.35970703 -1.375 4.3125 C-2.00148438 4.92738281 -2.62796875 5.54226563 -3.2734375 6.17578125 C-5.18086607 8.08812528 -5.18086607 8.08812528 -7 11 C-6.85969405 7.98342209 -6.70648535 5.76158727 -4.59765625 3.48828125 C-3.11095765 2.26743934 -1.55865102 1.12753478 0 0 Z " fill="#01E7E2" transform="translate(724,278)"/>
<path d="M0 0 C2.64 0 5.28 0 8 0 C8 0.99 8 1.98 8 3 C5.36 3 2.72 3 0 3 C0 2.01 0 1.02 0 0 Z " fill="#02D0CB" transform="translate(256,840)"/>
<path d="M0 0 C0.99 0.33 1.98 0.66 3 1 C3 3.97 3 6.94 3 10 C2.01 9.34 1.02 8.68 0 8 C-0.40843923 5.28796348 -0.13336867 2.7562858 0 0 Z " fill="#001922" transform="translate(610,334)"/>
<path d="M0 0 C0.625 1.875 0.625 1.875 1 4 C-1.22189824 6.22189824 -3.08482708 6.92598892 -6 8 C-5.67 6.68 -5.34 5.36 -5 4 C-4.01 4 -3.02 4 -2 4 C-1.34 2.68 -0.68 1.36 0 0 Z " fill="#00C1C0" transform="translate(706,506)"/>
<path d="M0 0 C2.475 0.495 2.475 0.495 5 1 C3.79266543 3.41466913 2.39745961 5.69115369 1 8 C-0.35439668 5.29120665 -0.06501451 2.99066732 0 0 Z " fill="#03CFCA" transform="translate(545,824)"/>
<path d="M0 0 C0 0.99 0 1.98 0 3 C-4.455 2.01 -4.455 2.01 -9 1 C-4.82091936 -1.08954032 -4.19589427 -1.16552619 0 0 Z " fill="#00CAC7" transform="translate(771,712)"/>
<path d="M0 0 C0.99 0.33 1.98 0.66 3 1 C2.01 1.33 1.02 1.66 0 2 C0 2.66 0 3.32 0 4 C-0.99 4.66 -1.98 5.32 -3 6 C-3.99 5.67 -4.98 5.34 -6 5 C-1.60546875 0.99609375 -1.60546875 0.99609375 0 0 Z " fill="#00E1DC" transform="translate(558,415)"/>
<path d="M0 0 C2 3 2 3 1.625 5.1875 C1.41875 5.785625 1.2125 6.38375 1 7 C1 6.34 1 5.68 1 5 C-0.32 4.34 -1.64 3.68 -3 3 C-2.01 3 -1.02 3 0 3 C0 2.01 0 1.02 0 0 Z M-2 5 C-1.67 5.66 -1.34 6.32 -1 7 C-2.32 7.33 -3.64 7.66 -5 8 C-4.01 7.01 -3.02 6.02 -2 5 Z " fill="#010512" transform="translate(698,410)"/>
<path d="M0 0 C1.22589844 0.15275391 1.22589844 0.15275391 2.4765625 0.30859375 C3.41628906 0.43427734 3.41628906 0.43427734 4.375 0.5625 C4.375 0.8925 4.375 1.2225 4.375 1.5625 C2.91864629 1.78424933 1.45977044 1.98948698 0 2.1875 C-0.81210937 2.30351562 -1.62421875 2.41953125 -2.4609375 2.5390625 C-3.17507813 2.54679687 -3.88921875 2.55453125 -4.625 2.5625 C-5.285 1.9025 -5.945 1.2425 -6.625 0.5625 C-4.10446405 -0.69776798 -2.7707902 -0.35624445 0 0 Z M-6.625 2.5625 C-5.965 2.8925 -5.305 3.2225 -4.625 3.5625 C-5.615 3.5625 -6.605 3.5625 -7.625 3.5625 C-7.295 3.2325 -6.965 2.9025 -6.625 2.5625 Z " fill="#02CFCB" transform="translate(625.625,323.4375)"/>
<path d="M0 0 C2 2 2 2 2.1953125 4.1640625 C2.16050781 5.38222656 2.16050781 5.38222656 2.125 6.625 C2.10695313 7.44226563 2.08890625 8.25953125 2.0703125 9.1015625 C2.04710937 9.72804688 2.02390625 10.35453125 2 11 C0.4375 9.4375 0.4375 9.4375 -1 7 C-0.6875 3.25 -0.6875 3.25 0 0 Z " fill="#001722" transform="translate(305,483)"/>
<path d="M0 0 C-1.06546953 2.13093906 -2.29159719 3.36587557 -4 5 C-4 4.34 -4 3.68 -4 3 C-5.32 3 -6.64 3 -8 3 C-8 2.34 -8 1.68 -8 1 C-5.23735711 0.40267181 -2.83967231 0 0 0 Z " fill="#03CECA" transform="translate(547,833)"/>
<path d="M0 0 C0.66 0.66 1.32 1.32 2 2 C4.20250992 2.46006346 4.20250992 2.46006346 6.625 2.625 C7.44226563 2.69976563 8.25953125 2.77453125 9.1015625 2.8515625 C9.72804688 2.90054688 10.35453125 2.94953125 11 3 C11 3.33 11 3.66 11 4 C7.37 4 3.74 4 0 4 C0 2.68 0 1.36 0 0 Z " fill="#00C8C5" transform="translate(803,778)"/>
<path d="M0 0 C0.33 0 0.66 0 1 0 C0.67 2.97 0.34 5.94 0 9 C-2 6 -2 6 -2 2 C-1.34 2 -0.68 2 0 2 C0 1.34 0 0.68 0 0 Z " fill="#01DED9" transform="translate(297,446)"/>
<path d="M0 0 C0.99 0 1.98 0 3 0 C2.67 2.31 2.34 4.62 2 7 C1.01 7 0.02 7 -1 7 C-0.67 4.69 -0.34 2.38 0 0 Z " fill="#011A23" transform="translate(293,414)"/>
<path d="M0 0 C2.08954032 4.17908064 2.16552619 4.80410573 1 9 C0.01 9 -0.98 9 -2 9 C-1.34 6.03 -0.68 3.06 0 0 Z " fill="#011C24" transform="translate(316,375)"/>
<path d="M0 0 C0.99 0.33 1.98 0.66 3 1 C3.79953138 4.28696233 4.09658936 5.71023192 3 9 C0 3.375 0 3.375 0 0 Z " fill="#011B21" transform="translate(692,316)"/>
<path d="M0 0 C0 2 0 2 -2 4.125 C-2.66 4.74375 -3.32 5.3625 -4 6 C-4.99 5.67 -5.98 5.34 -7 5 C-7 4.34 -7 3.68 -7 3 C-2.61538462 0 -2.61538462 0 0 0 Z " fill="#011D23" transform="translate(746,305)"/>
</svg>
